<?xml version="1.0" encoding="UTF-8"?>
<svg xmlns="http://www.w3.org/2000/svg" xmlns:xlink="http://www.w3.org/1999/xlink" width="322.064pt" height="237.534pt" viewBox="0 0 322.064 237.534" version="1.1">
<defs>
<g>
<symbol overflow="visible" id="glyph0-0">
<path style="stroke:none;" d=""/>
</symbol>
<symbol overflow="visible" id="glyph0-1">
<path style="stroke:none;" d="M 7.375 -4.34375 C 7.375 -5.953125 6.3125 -7.03125 4.828125 -7.03125 C 2.6875 -7.03125 0.484375 -4.765625 0.484375 -2.4375 C 0.484375 -0.78125 1.609375 0.21875 3.046875 0.21875 C 5.15625 0.21875 7.375 -1.96875 7.375 -4.34375 Z M 3.09375 -0.046875 C 2.109375 -0.046875 1.421875 -0.84375 1.421875 -2.15625 C 1.421875 -2.609375 1.5625 -4.0625 2.328125 -5.21875 C 3.015625 -6.265625 3.984375 -6.78125 4.78125 -6.78125 C 5.59375 -6.78125 6.484375 -6.21875 6.484375 -4.734375 C 6.484375 -4.015625 6.21875 -2.46875 5.234375 -1.234375 C 4.75 -0.625 3.9375 -0.046875 3.09375 -0.046875 Z M 3.09375 -0.046875 "/>
</symbol>
<symbol overflow="visible" id="glyph0-2">
<path style="stroke:none;" d="M 3.734375 -6.125 C 3.796875 -6.359375 3.828125 -6.453125 4.015625 -6.484375 C 4.109375 -6.5 4.421875 -6.5 4.625 -6.5 C 5.328125 -6.5 6.4375 -6.5 6.4375 -5.515625 C 6.4375 -5.171875 6.28125 -4.484375 5.890625 -4.09375 C 5.625 -3.84375 5.109375 -3.515625 4.203125 -3.515625 L 3.09375 -3.515625 Z M 5.171875 -3.390625 C 6.1875 -3.609375 7.359375 -4.3125 7.359375 -5.3125 C 7.359375 -6.171875 6.46875 -6.8125 5.15625 -6.8125 L 2.328125 -6.8125 C 2.125 -6.8125 2.03125 -6.8125 2.03125 -6.609375 C 2.03125 -6.5 2.125 -6.5 2.3125 -6.5 C 2.328125 -6.5 2.515625 -6.5 2.6875 -6.484375 C 2.875 -6.453125 2.953125 -6.453125 2.953125 -6.3125 C 2.953125 -6.28125 2.953125 -6.25 2.921875 -6.125 L 1.578125 -0.78125 C 1.484375 -0.390625 1.46875 -0.3125 0.671875 -0.3125 C 0.5 -0.3125 0.40625 -0.3125 0.40625 -0.109375 C 0.40625 0 0.53125 0 0.546875 0 C 0.828125 0 1.53125 -0.03125 1.796875 -0.03125 C 2.078125 -0.03125 2.796875 0 3.078125 0 C 3.15625 0 3.265625 0 3.265625 -0.203125 C 3.265625 -0.3125 3.1875 -0.3125 2.984375 -0.3125 C 2.625 -0.3125 2.34375 -0.3125 2.34375 -0.484375 C 2.34375 -0.546875 2.359375 -0.59375 2.375 -0.65625 L 3.03125 -3.296875 L 4.21875 -3.296875 C 5.125 -3.296875 5.296875 -2.734375 5.296875 -2.390625 C 5.296875 -2.25 5.21875 -1.9375 5.15625 -1.703125 C 5.09375 -1.421875 5 -1.0625 5 -0.859375 C 5 0.21875 6.203125 0.21875 6.328125 0.21875 C 7.171875 0.21875 7.53125 -0.78125 7.53125 -0.921875 C 7.53125 -1.046875 7.421875 -1.046875 7.40625 -1.046875 C 7.3125 -1.046875 7.296875 -0.984375 7.28125 -0.90625 C 7.03125 -0.171875 6.59375 0 6.375 0 C 6.046875 0 5.96875 -0.21875 5.96875 -0.609375 C 5.96875 -0.921875 6.03125 -1.421875 6.078125 -1.75 C 6.09375 -1.890625 6.109375 -2.078125 6.109375 -2.21875 C 6.109375 -2.984375 5.4375 -3.296875 5.171875 -3.390625 Z M 5.171875 -3.390625 "/>
</symbol>
<symbol overflow="visible" id="glyph0-3">
<path style="stroke:none;" d="M 4.84375 -3.796875 C 4.890625 -3.9375 4.890625 -3.953125 4.890625 -4.03125 C 4.890625 -4.203125 4.75 -4.296875 4.59375 -4.296875 C 4.5 -4.296875 4.34375 -4.234375 4.25 -4.09375 C 4.234375 -4.03125 4.140625 -3.734375 4.109375 -3.546875 C 4.03125 -3.296875 3.96875 -3.015625 3.90625 -2.75 L 3.453125 -0.953125 C 3.421875 -0.8125 2.984375 -0.109375 2.328125 -0.109375 C 1.828125 -0.109375 1.71875 -0.546875 1.71875 -0.921875 C 1.71875 -1.375 1.890625 -2 2.21875 -2.875 C 2.375 -3.28125 2.421875 -3.390625 2.421875 -3.59375 C 2.421875 -4.03125 2.109375 -4.40625 1.609375 -4.40625 C 0.65625 -4.40625 0.296875 -2.953125 0.296875 -2.875 C 0.296875 -2.765625 0.390625 -2.765625 0.40625 -2.765625 C 0.515625 -2.765625 0.515625 -2.796875 0.5625 -2.953125 C 0.84375 -3.890625 1.234375 -4.1875 1.578125 -4.1875 C 1.65625 -4.1875 1.828125 -4.1875 1.828125 -3.875 C 1.828125 -3.625 1.71875 -3.359375 1.65625 -3.171875 C 1.25 -2.109375 1.078125 -1.546875 1.078125 -1.078125 C 1.078125 -0.1875 1.703125 0.109375 2.296875 0.109375 C 2.6875 0.109375 3.015625 -0.0625 3.296875 -0.34375 C 3.171875 0.171875 3.046875 0.671875 2.65625 1.203125 C 2.390625 1.53125 2.015625 1.828125 1.5625 1.828125 C 1.421875 1.828125 0.96875 1.796875 0.796875 1.40625 C 0.953125 1.40625 1.09375 1.40625 1.21875 1.28125 C 1.328125 1.203125 1.421875 1.0625 1.421875 0.875 C 1.421875 0.5625 1.15625 0.53125 1.0625 0.53125 C 0.828125 0.53125 0.5 0.6875 0.5 1.171875 C 0.5 1.671875 0.9375 2.046875 1.5625 2.046875 C 2.578125 2.046875 3.609375 1.140625 3.890625 0.015625 Z M 4.84375 -3.796875 "/>
</symbol>
<symbol overflow="visible" id="glyph0-4">
<path style="stroke:none;" d="M 3.328125 -3.015625 C 3.390625 -3.265625 3.625 -4.1875 4.3125 -4.1875 C 4.359375 -4.1875 4.609375 -4.1875 4.8125 -4.0625 C 4.53125 -4 4.34375 -3.765625 4.34375 -3.515625 C 4.34375 -3.359375 4.453125 -3.171875 4.71875 -3.171875 C 4.9375 -3.171875 5.25 -3.34375 5.25 -3.75 C 5.25 -4.265625 4.671875 -4.40625 4.328125 -4.40625 C 3.75 -4.40625 3.40625 -3.875 3.28125 -3.65625 C 3.03125 -4.3125 2.5 -4.40625 2.203125 -4.40625 C 1.171875 -4.40625 0.59375 -3.125 0.59375 -2.875 C 0.59375 -2.765625 0.703125 -2.765625 0.71875 -2.765625 C 0.796875 -2.765625 0.828125 -2.796875 0.84375 -2.875 C 1.1875 -3.9375 1.84375 -4.1875 2.1875 -4.1875 C 2.375 -4.1875 2.71875 -4.09375 2.71875 -3.515625 C 2.71875 -3.203125 2.546875 -2.546875 2.1875 -1.140625 C 2.03125 -0.53125 1.671875 -0.109375 1.234375 -0.109375 C 1.171875 -0.109375 0.953125 -0.109375 0.734375 -0.234375 C 0.984375 -0.296875 1.203125 -0.5 1.203125 -0.78125 C 1.203125 -1.046875 0.984375 -1.125 0.84375 -1.125 C 0.53125 -1.125 0.296875 -0.875 0.296875 -0.546875 C 0.296875 -0.09375 0.78125 0.109375 1.21875 0.109375 C 1.890625 0.109375 2.25 -0.59375 2.265625 -0.640625 C 2.390625 -0.28125 2.75 0.109375 3.34375 0.109375 C 4.375 0.109375 4.9375 -1.171875 4.9375 -1.421875 C 4.9375 -1.53125 4.859375 -1.53125 4.828125 -1.53125 C 4.734375 -1.53125 4.71875 -1.484375 4.6875 -1.421875 C 4.359375 -0.34375 3.6875 -0.109375 3.375 -0.109375 C 2.984375 -0.109375 2.828125 -0.421875 2.828125 -0.765625 C 2.828125 -0.984375 2.875 -1.203125 2.984375 -1.640625 Z M 3.328125 -3.015625 "/>
</symbol>
<symbol overflow="visible" id="glyph0-5">
<path style="stroke:none;" d="M 2.375 -6.8125 C 2.375 -6.8125 2.375 -6.921875 2.25 -6.921875 C 2.03125 -6.921875 1.296875 -6.84375 1.03125 -6.8125 C 0.953125 -6.8125 0.84375 -6.796875 0.84375 -6.625 C 0.84375 -6.5 0.9375 -6.5 1.09375 -6.5 C 1.5625 -6.5 1.578125 -6.4375 1.578125 -6.328125 C 1.578125 -6.265625 1.5 -5.921875 1.453125 -5.71875 L 0.625 -2.46875 C 0.515625 -1.96875 0.46875 -1.796875 0.46875 -1.453125 C 0.46875 -0.515625 1 0.109375 1.734375 0.109375 C 2.90625 0.109375 4.140625 -1.375 4.140625 -2.8125 C 4.140625 -3.71875 3.609375 -4.40625 2.8125 -4.40625 C 2.359375 -4.40625 1.9375 -4.109375 1.640625 -3.8125 Z M 1.453125 -3.046875 C 1.5 -3.265625 1.5 -3.28125 1.59375 -3.390625 C 2.078125 -4.03125 2.53125 -4.1875 2.796875 -4.1875 C 3.15625 -4.1875 3.421875 -3.890625 3.421875 -3.25 C 3.421875 -2.65625 3.09375 -1.515625 2.90625 -1.140625 C 2.578125 -0.46875 2.125 -0.109375 1.734375 -0.109375 C 1.390625 -0.109375 1.0625 -0.375 1.0625 -1.109375 C 1.0625 -1.3125 1.0625 -1.5 1.21875 -2.125 Z M 1.453125 -3.046875 "/>
</symbol>
<symbol overflow="visible" id="glyph1-0">
<path style="stroke:none;" d=""/>
</symbol>
<symbol overflow="visible" id="glyph1-1">
<path style="stroke:none;" d="M 2.328125 -4.4375 C 2.328125 -4.625 2.328125 -4.625 2.125 -4.625 C 1.671875 -4.1875 1.046875 -4.1875 0.765625 -4.1875 L 0.765625 -3.9375 C 0.921875 -3.9375 1.390625 -3.9375 1.765625 -4.125 L 1.765625 -0.578125 C 1.765625 -0.34375 1.765625 -0.25 1.078125 -0.25 L 0.8125 -0.25 L 0.8125 0 C 0.9375 0 1.796875 -0.03125 2.046875 -0.03125 C 2.265625 -0.03125 3.140625 0 3.296875 0 L 3.296875 -0.25 L 3.03125 -0.25 C 2.328125 -0.25 2.328125 -0.34375 2.328125 -0.578125 Z M 2.328125 -4.4375 "/>
</symbol>
<symbol overflow="visible" id="glyph1-2">
<path style="stroke:none;" d="M 3.515625 -1.265625 L 3.28125 -1.265625 C 3.265625 -1.109375 3.1875 -0.703125 3.09375 -0.640625 C 3.046875 -0.59375 2.515625 -0.59375 2.40625 -0.59375 L 1.125 -0.59375 C 1.859375 -1.234375 2.109375 -1.4375 2.515625 -1.765625 C 3.03125 -2.171875 3.515625 -2.609375 3.515625 -3.265625 C 3.515625 -4.109375 2.78125 -4.625 1.890625 -4.625 C 1.03125 -4.625 0.4375 -4.015625 0.4375 -3.375 C 0.4375 -3.03125 0.734375 -2.984375 0.8125 -2.984375 C 0.96875 -2.984375 1.171875 -3.109375 1.171875 -3.359375 C 1.171875 -3.484375 1.125 -3.734375 0.765625 -3.734375 C 0.984375 -4.21875 1.453125 -4.375 1.78125 -4.375 C 2.484375 -4.375 2.84375 -3.828125 2.84375 -3.265625 C 2.84375 -2.65625 2.40625 -2.1875 2.1875 -1.9375 L 0.515625 -0.265625 C 0.4375 -0.203125 0.4375 -0.1875 0.4375 0 L 3.3125 0 Z M 3.515625 -1.265625 "/>
</symbol>
<symbol overflow="visible" id="glyph2-0">
<path style="stroke:none;" d=""/>
</symbol>
<symbol overflow="visible" id="glyph2-1">
<path style="stroke:none;" d="M 6.84375 -3.265625 C 7 -3.265625 7.1875 -3.265625 7.1875 -3.453125 C 7.1875 -3.65625 7 -3.65625 6.859375 -3.65625 L 0.890625 -3.65625 C 0.75 -3.65625 0.5625 -3.65625 0.5625 -3.453125 C 0.5625 -3.265625 0.75 -3.265625 0.890625 -3.265625 Z M 6.859375 -1.328125 C 7 -1.328125 7.1875 -1.328125 7.1875 -1.53125 C 7.1875 -1.71875 7 -1.71875 6.84375 -1.71875 L 0.890625 -1.71875 C 0.75 -1.71875 0.5625 -1.71875 0.5625 -1.53125 C 0.5625 -1.328125 0.75 -1.328125 0.890625 -1.328125 Z M 6.859375 -1.328125 "/>
</symbol>
<symbol overflow="visible" id="glyph2-2">
<path style="stroke:none;" d="M 3.296875 2.390625 C 3.296875 2.359375 3.296875 2.34375 3.125 2.171875 C 1.890625 0.921875 1.5625 -0.96875 1.5625 -2.5 C 1.5625 -4.234375 1.9375 -5.96875 3.171875 -7.203125 C 3.296875 -7.328125 3.296875 -7.34375 3.296875 -7.375 C 3.296875 -7.453125 3.265625 -7.484375 3.203125 -7.484375 C 3.09375 -7.484375 2.203125 -6.796875 1.609375 -5.53125 C 1.109375 -4.4375 0.984375 -3.328125 0.984375 -2.5 C 0.984375 -1.71875 1.09375 -0.515625 1.640625 0.625 C 2.25 1.84375 3.09375 2.5 3.203125 2.5 C 3.265625 2.5 3.296875 2.46875 3.296875 2.390625 Z M 3.296875 2.390625 "/>
</symbol>
<symbol overflow="visible" id="glyph2-3">
<path style="stroke:none;" d="M 4.078125 -2.296875 L 6.859375 -2.296875 C 7 -2.296875 7.1875 -2.296875 7.1875 -2.5 C 7.1875 -2.6875 7 -2.6875 6.859375 -2.6875 L 4.078125 -2.6875 L 4.078125 -5.484375 C 4.078125 -5.625 4.078125 -5.8125 3.875 -5.8125 C 3.671875 -5.8125 3.671875 -5.625 3.671875 -5.484375 L 3.671875 -2.6875 L 0.890625 -2.6875 C 0.75 -2.6875 0.5625 -2.6875 0.5625 -2.5 C 0.5625 -2.296875 0.75 -2.296875 0.890625 -2.296875 L 3.671875 -2.296875 L 3.671875 0.5 C 3.671875 0.640625 3.671875 0.828125 3.875 0.828125 C 4.078125 0.828125 4.078125 0.640625 4.078125 0.5 Z M 4.078125 -2.296875 "/>
</symbol>
<symbol overflow="visible" id="glyph2-4">
<path style="stroke:none;" d="M 2.9375 -6.375 C 2.9375 -6.625 2.9375 -6.640625 2.703125 -6.640625 C 2.078125 -6 1.203125 -6 0.890625 -6 L 0.890625 -5.6875 C 1.09375 -5.6875 1.671875 -5.6875 2.1875 -5.953125 L 2.1875 -0.78125 C 2.1875 -0.421875 2.15625 -0.3125 1.265625 -0.3125 L 0.953125 -0.3125 L 0.953125 0 C 1.296875 -0.03125 2.15625 -0.03125 2.5625 -0.03125 C 2.953125 -0.03125 3.828125 -0.03125 4.171875 0 L 4.171875 -0.3125 L 3.859375 -0.3125 C 2.953125 -0.3125 2.9375 -0.421875 2.9375 -0.78125 Z M 2.9375 -6.375 "/>
</symbol>
<symbol overflow="visible" id="glyph2-5">
<path style="stroke:none;" d="M 2.875 -2.5 C 2.875 -3.265625 2.765625 -4.46875 2.21875 -5.609375 C 1.625 -6.828125 0.765625 -7.484375 0.671875 -7.484375 C 0.609375 -7.484375 0.5625 -7.4375 0.5625 -7.375 C 0.5625 -7.34375 0.5625 -7.328125 0.75 -7.140625 C 1.734375 -6.15625 2.296875 -4.578125 2.296875 -2.5 C 2.296875 -0.78125 1.9375 0.96875 0.703125 2.21875 C 0.5625 2.34375 0.5625 2.359375 0.5625 2.390625 C 0.5625 2.453125 0.609375 2.5 0.671875 2.5 C 0.765625 2.5 1.671875 1.8125 2.25 0.546875 C 2.765625 -0.546875 2.875 -1.65625 2.875 -2.5 Z M 2.875 -2.5 "/>
</symbol>
<symbol overflow="visible" id="glyph2-6">
<path style="stroke:none;" d="M 1.265625 -0.765625 L 2.328125 -1.796875 C 3.875 -3.171875 4.46875 -3.703125 4.46875 -4.703125 C 4.46875 -5.84375 3.578125 -6.640625 2.359375 -6.640625 C 1.234375 -6.640625 0.5 -5.71875 0.5 -4.828125 C 0.5 -4.28125 1 -4.28125 1.03125 -4.28125 C 1.203125 -4.28125 1.546875 -4.390625 1.546875 -4.8125 C 1.546875 -5.0625 1.359375 -5.328125 1.015625 -5.328125 C 0.9375 -5.328125 0.921875 -5.328125 0.890625 -5.3125 C 1.109375 -5.96875 1.65625 -6.328125 2.234375 -6.328125 C 3.140625 -6.328125 3.5625 -5.515625 3.5625 -4.703125 C 3.5625 -3.90625 3.078125 -3.125 2.515625 -2.5 L 0.609375 -0.375 C 0.5 -0.265625 0.5 -0.234375 0.5 0 L 4.203125 0 L 4.46875 -1.734375 L 4.234375 -1.734375 C 4.171875 -1.4375 4.109375 -1 4 -0.84375 C 3.9375 -0.765625 3.28125 -0.765625 3.0625 -0.765625 Z M 1.265625 -0.765625 "/>
</symbol>
<symbol overflow="visible" id="glyph3-0">
<path style="stroke:none;" d=""/>
</symbol>
<symbol overflow="visible" id="glyph3-1">
<path style="stroke:none;" d="M 6.5625 -2.296875 C 6.734375 -2.296875 6.921875 -2.296875 6.921875 -2.5 C 6.921875 -2.6875 6.734375 -2.6875 6.5625 -2.6875 L 1.171875 -2.6875 C 1 -2.6875 0.828125 -2.6875 0.828125 -2.5 C 0.828125 -2.296875 1 -2.296875 1.171875 -2.296875 Z M 6.5625 -2.296875 "/>
</symbol>
</g>
<clipPath id="clip1">
  <path d="M 32 25.058594 L 273 25.058594 L 273 235 L 32 235 Z M 32 25.058594 "/>
</clipPath>
</defs>
<g id="surface1">
<path style="fill:none;stroke-width:0.3985;stroke-linecap:butt;stroke-linejoin:miter;stroke:rgb(0%,0%,0%);stroke-opacity:1;stroke-miterlimit:10;" d="M -24.612594 114.997125 L 267.0085 114.997125 " transform="matrix(1,0,0,-1,26.804,223.294)"/>
<path style="fill-rule:nonzero;fill:rgb(0%,0%,0%);fill-opacity:1;stroke-width:0.3985;stroke-linecap:butt;stroke-linejoin:miter;stroke:rgb(0%,0%,0%);stroke-opacity:1;stroke-miterlimit:10;" d="M 5.169665 -0.001655 L 0.642321 1.705376 L 2.126696 -0.001655 L 0.642321 -1.70478 Z M 5.169665 -0.001655 " transform="matrix(1,0,0,-1,291.78346,108.29522)"/>
<path style="fill:none;stroke-width:0.3985;stroke-linecap:butt;stroke-linejoin:miter;stroke:rgb(0%,0%,0%);stroke-opacity:1;stroke-miterlimit:10;" d="M 103.020219 -12.04975 L 103.020219 194.528375 " transform="matrix(1,0,0,-1,26.804,223.294)"/>
<path style="fill-rule:nonzero;fill:rgb(0%,0%,0%);fill-opacity:1;stroke-width:0.3985;stroke-linecap:butt;stroke-linejoin:miter;stroke:rgb(0%,0%,0%);stroke-opacity:1;stroke-miterlimit:10;" d="M 5.17045 0.00084125 L 0.643106 1.703966 L 2.127481 0.00084125 L 0.643106 -1.70619 Z M 5.17045 0.00084125 " transform="matrix(0,-1,-1,0,129.82506,30.79545)"/>
<g style="fill:rgb(0%,0%,0%);fill-opacity:1;">
  <use xlink:href="#glyph0-1" x="116.436" y="120.616"/>
</g>
<path style=" stroke:none;fill-rule:nonzero;fill:rgb(84.999084%,84.999084%,84.999084%);fill-opacity:1;" d="M 72.589844 108.296875 L 73.167969 106.984375 L 73.746094 105.710938 L 74.324219 104.472656 L 74.902344 103.269531 L 75.480469 102.097656 L 76.058594 100.964844 L 76.636719 99.863281 L 77.214844 98.796875 L 77.792969 97.761719 L 78.371094 96.761719 L 78.949219 95.796875 L 79.527344 94.863281 L 80.105469 93.960938 L 80.683594 93.089844 L 81.261719 92.253906 L 81.839844 91.449219 L 82.417969 90.671875 L 82.996094 89.929688 L 83.574219 89.21875 L 84.152344 88.535156 L 84.730469 87.882813 L 85.308594 87.261719 L 85.886719 86.671875 L 86.464844 86.109375 L 87.042969 85.578125 L 87.621094 85.074219 L 88.199219 84.597656 L 88.777344 84.152344 L 89.355469 83.734375 L 89.933594 83.34375 L 90.511719 82.980469 L 91.089844 82.644531 L 91.667969 82.335938 L 92.246094 82.054688 L 92.824219 81.796875 L 93.402344 81.570313 L 93.980469 81.367188 L 94.558594 81.1875 L 95.136719 81.039063 L 95.714844 80.910156 L 96.292969 80.808594 L 96.871094 80.734375 L 97.449219 80.679688 L 98.027344 80.652344 L 98.605469 80.648438 L 99.183594 80.667969 L 99.761719 80.707031 L 100.339844 80.773438 L 100.917969 80.863281 L 101.496094 80.972656 L 102.074219 81.105469 L 102.652344 81.257813 L 103.230469 81.4375 L 103.808594 81.632813 L 104.386719 81.851563 L 104.964844 82.09375 L 105.539063 82.351563 L 106.117188 82.632813 L 106.695313 82.933594 L 107.273438 83.253906 L 107.851563 83.59375 L 108.429688 83.953125 L 109.007813 84.332031 L 109.585938 84.726563 L 110.164063 85.144531 L 110.742188 85.578125 L 111.320313 86.027344 L 111.898438 86.496094 L 112.476563 86.984375 L 113.054688 87.488281 L 113.632813 88.007813 L 114.210938 88.542969 L 114.789063 89.097656 L 115.367188 89.664063 L 115.945313 90.25 L 116.523438 90.847656 L 117.101563 91.464844 L 117.679688 92.09375 L 118.257813 92.738281 L 118.835938 93.398438 L 119.414063 94.070313 L 119.992188 94.757813 L 120.570313 95.457031 L 121.148438 96.171875 L 121.726563 96.898438 L 122.304688 97.636719 L 122.882813 98.390625 L 123.460938 99.15625 L 124.039063 99.929688 L 124.617188 100.71875 L 125.195313 101.515625 L 125.773438 102.328125 L 126.351563 103.148438 L 126.929688 103.980469 L 127.507813 104.820313 L 128.085938 105.675781 L 128.664063 106.535156 L 129.242188 107.40625 L 129.820313 108.289063 L 129.820313 108.296875 Z M 72.589844 108.296875 "/>
<g style="fill:rgb(0%,0%,0%);fill-opacity:1;">
  <use xlink:href="#glyph0-2" x="95.19" y="97.811"/>
</g>
<g style="fill:rgb(0%,0%,0%);fill-opacity:1;">
  <use xlink:href="#glyph1-1" x="102.754" y="99.305"/>
</g>
<path style=" stroke:none;fill-rule:nonzero;fill:rgb(92.498779%,92.498779%,92.498779%);fill-opacity:1;" d="M 129.824219 108.296875 L 130.542969 109.398438 L 131.257813 110.515625 L 131.972656 111.644531 L 132.6875 112.785156 L 133.40625 113.9375 L 134.121094 115.101563 L 134.835938 116.273438 L 135.554688 117.457031 L 136.269531 118.652344 L 136.984375 119.855469 L 137.699219 121.066406 L 138.417969 122.289063 L 139.132813 123.515625 L 139.847656 124.75 L 140.566406 125.988281 L 141.996094 128.488281 L 142.714844 129.746094 L 143.429688 131.007813 L 144.144531 132.273438 L 144.859375 133.542969 L 145.578125 134.816406 L 147.007813 137.363281 L 147.726563 138.644531 L 149.871094 142.476563 L 150.589844 143.757813 L 151.304688 145.03125 L 152.019531 146.308594 L 152.738281 147.582031 L 153.453125 148.851563 L 154.167969 150.117188 L 154.886719 151.378906 L 155.601563 152.640625 L 157.03125 155.140625 L 157.75 156.382813 L 158.464844 157.621094 L 159.179688 158.847656 L 159.898438 160.070313 L 160.613281 161.285156 L 161.328125 162.492188 L 162.042969 163.6875 L 162.761719 164.875 L 163.476563 166.050781 L 164.191406 167.21875 L 164.910156 168.375 L 164.910156 108.296875 Z M 129.824219 108.296875 "/>
<g style="fill:rgb(0%,0%,0%);fill-opacity:1;">
  <use xlink:href="#glyph0-2" x="146.7" y="128.477"/>
</g>
<g style="fill:rgb(0%,0%,0%);fill-opacity:1;">
  <use xlink:href="#glyph1-2" x="154.264" y="129.971"/>
</g>
<g clip-path="url(#clip1)" clip-rule="nonzero">
<path style="fill:none;stroke-width:0.79701;stroke-linecap:butt;stroke-linejoin:miter;stroke:rgb(100%,0%,0%);stroke-opacity:1;stroke-miterlimit:10;" d="M 17.168656 0.00103125 L 18.629594 8.501031 L 20.090531 16.696344 L 21.547562 24.586969 L 23.0085 32.172906 L 24.469437 39.465875 L 25.926469 46.469781 L 27.387406 53.180719 L 28.848344 59.614313 L 30.305375 65.766656 L 31.766312 71.641656 L 33.22725 77.251031 L 34.684281 82.594781 L 36.145219 87.676813 L 37.606156 92.501031 L 39.063187 97.07525 L 40.524125 101.399469 L 41.985062 105.477594 L 43.442094 109.321344 L 44.903031 112.926813 L 46.363969 116.301813 L 47.821 119.454156 L 49.281937 122.379938 L 50.742875 125.090875 L 52.199906 127.590875 L 53.660844 129.876031 L 55.121781 131.961969 L 56.578812 133.844781 L 58.03975 135.532281 L 59.500687 137.032281 L 60.957719 138.340875 L 62.418656 139.469781 L 63.879594 140.419 L 65.336625 141.192438 L 66.797562 141.797906 L 68.2585 142.239313 L 69.715531 142.516656 L 71.176469 142.641656 L 72.637406 142.610406 L 74.094437 142.434625 L 75.555375 142.114313 L 77.016312 141.657281 L 78.473344 141.063531 L 79.934281 140.336969 L 81.395219 139.489313 L 82.85225 138.516656 L 84.313187 137.426813 L 85.774125 136.223688 L 87.231156 134.915094 L 88.692094 133.501031 L 90.153031 131.985406 L 91.610062 130.376031 L 93.071 128.676813 L 94.531937 126.88775 L 95.988969 125.020563 L 97.449906 123.071344 L 98.910844 121.047906 L 100.367875 118.958063 L 101.828813 116.801813 L 103.28975 114.586969 L 104.746781 112.313531 L 106.207719 109.989313 L 107.668656 107.618219 L 109.125688 105.204156 L 110.586625 102.751031 L 112.047563 100.26275 L 113.5085 97.747125 L 114.965531 95.20025 L 116.426469 92.63775 L 117.887406 90.055719 L 119.344438 87.461969 L 120.805375 84.860406 L 122.266313 82.251031 L 123.723344 79.645563 L 125.184281 77.044 L 126.645219 74.454156 L 128.10225 71.876031 L 129.563188 69.313531 L 131.024125 66.778375 L 132.481156 64.266656 L 133.942094 61.786188 L 135.403031 59.340875 L 136.860063 56.934625 L 138.321 54.571344 L 139.781938 52.258844 L 141.238969 50.001031 L 142.699906 47.797906 L 144.160844 45.657281 L 145.617875 43.583063 L 147.078813 41.57525 L 148.53975 39.645563 L 149.996781 37.794 L 151.457719 36.024469 L 152.918656 34.344781 L 154.375688 32.758844 L 155.836625 31.266656 L 157.297563 29.872125 L 158.754594 28.586969 L 160.215531 27.411188 L 161.676469 26.348688 L 163.1335 25.403375 L 164.594438 24.583063 L 166.055375 23.88775 L 167.512406 23.321344 L 168.973344 22.895563 L 170.434281 22.6065 L 171.891313 22.461969 L 173.35225 22.469781 L 174.813188 22.626031 L 176.270219 22.942438 L 177.731156 23.419 L 179.192094 24.063531 L 180.649125 24.876031 L 182.110063 25.868219 L 183.571 27.036188 L 185.028031 28.38775 L 186.488969 29.926813 L 187.949906 31.661188 L 189.406938 33.586969 L 190.867875 35.719781 L 192.328813 38.051813 L 193.785844 40.598688 L 195.246781 43.3565 L 196.707719 46.336969 L 198.16475 49.536188 L 199.625688 52.965875 L 201.086625 56.626031 L 202.543656 60.520563 L 204.004594 64.657281 L 205.465531 69.036188 L 206.922563 73.665094 L 208.3835 78.547906 L 209.844438 83.688531 L 211.301469 89.090875 L 212.762406 94.758844 L 214.223344 100.70025 L 215.680375 106.915094 L 217.141313 113.411188 L 218.60225 120.188531 L 220.059281 127.254938 L 221.520219 134.614313 L 222.981156 142.270563 L 224.438188 150.227594 L 225.899125 158.493219 L 227.360063 167.063531 L 228.817094 175.954156 L 230.278031 185.161188 L 231.738969 194.688531 L 233.196 204.547906 L 234.656938 214.735406 " transform="matrix(1,0,0,-1,26.804,223.294)"/>
</g>
<g style="fill:rgb(100%,0%,0%);fill-opacity:1;">
  <use xlink:href="#glyph0-3" x="164.63" y="61.016"/>
</g>
<g style="fill:rgb(100%,0%,0%);fill-opacity:1;">
  <use xlink:href="#glyph2-1" x="172.642919" y="61.016"/>
</g>
<g style="fill:rgb(100%,0%,0%);fill-opacity:1;">
  <use xlink:href="#glyph0-4" x="183.15147" y="61.016"/>
</g>
<g style="fill:rgb(100%,0%,0%);fill-opacity:1;">
  <use xlink:href="#glyph2-2" x="188.845096" y="61.016"/>
</g>
<g style="fill:rgb(100%,0%,0%);fill-opacity:1;">
  <use xlink:href="#glyph0-4" x="192.719551" y="61.016"/>
</g>
<g style="fill:rgb(100%,0%,0%);fill-opacity:1;">
  <use xlink:href="#glyph2-3" x="200.634836" y="61.016"/>
</g>
<g style="fill:rgb(100%,0%,0%);fill-opacity:1;">
  <use xlink:href="#glyph2-4" x="210.595444" y="61.016"/>
  <use xlink:href="#glyph2-5" x="215.576744" y="61.016"/>
  <use xlink:href="#glyph2-2" x="219.451199" y="61.016"/>
</g>
<g style="fill:rgb(100%,0%,0%);fill-opacity:1;">
  <use xlink:href="#glyph0-4" x="223.325654" y="61.016"/>
</g>
<g style="fill:rgb(100%,0%,0%);fill-opacity:1;">
  <use xlink:href="#glyph3-1" x="231.230977" y="61.016"/>
</g>
<g style="fill:rgb(100%,0%,0%);fill-opacity:1;">
  <use xlink:href="#glyph2-6" x="241.191585" y="61.016"/>
  <use xlink:href="#glyph2-5" x="246.172885" y="61.016"/>
</g>
<path style="fill:none;stroke-width:0.79701;stroke-linecap:butt;stroke-linejoin:miter;stroke:rgb(0%,0%,100%);stroke-opacity:1;stroke-dasharray:2.98883,2.98883;stroke-miterlimit:10;" d="M 138.106156 114.997125 L 138.106156 54.9815 " transform="matrix(1,0,0,-1,26.804,223.294)"/>
<g style="fill:rgb(0%,0%,0%);fill-opacity:1;">
  <use xlink:href="#glyph0-5" x="162.769" y="102.586"/>
</g>
<g style="fill:rgb(0%,0%,0%);fill-opacity:1;">
  <use xlink:href="#glyph0-4" x="311.057" y="110.417"/>
</g>
<g style="fill:rgb(0%,0%,0%);fill-opacity:1;">
  <use xlink:href="#glyph0-3" x="127.22" y="9.602"/>
</g>
</g>
</svg>
