<?xml version="1.0" encoding="UTF-8"?>
<svg xmlns="http://www.w3.org/2000/svg" xmlns:xlink="http://www.w3.org/1999/xlink" width="322.066pt" height="237.533pt" viewBox="0 0 322.066 237.533" version="1.1">
<defs>
<g>
<symbol overflow="visible" id="glyph0-0">
<path style="stroke:none;" d=""/>
</symbol>
<symbol overflow="visible" id="glyph0-1">
<path style="stroke:none;" d="M 7.375 -4.34375 C 7.375 -5.953125 6.3125 -7.03125 4.828125 -7.03125 C 2.6875 -7.03125 0.484375 -4.765625 0.484375 -2.4375 C 0.484375 -0.78125 1.609375 0.21875 3.046875 0.21875 C 5.15625 0.21875 7.375 -1.96875 7.375 -4.34375 Z M 3.09375 -0.046875 C 2.109375 -0.046875 1.421875 -0.84375 1.421875 -2.15625 C 1.421875 -2.609375 1.5625 -4.0625 2.328125 -5.21875 C 3.015625 -6.265625 3.984375 -6.78125 4.78125 -6.78125 C 5.59375 -6.78125 6.484375 -6.21875 6.484375 -4.734375 C 6.484375 -4.015625 6.21875 -2.46875 5.234375 -1.234375 C 4.75 -0.625 3.9375 -0.046875 3.09375 -0.046875 Z M 3.09375 -0.046875 "/>
</symbol>
<symbol overflow="visible" id="glyph0-2">
<path style="stroke:none;" d="M 4.84375 -3.796875 C 4.890625 -3.9375 4.890625 -3.953125 4.890625 -4.03125 C 4.890625 -4.203125 4.75 -4.296875 4.59375 -4.296875 C 4.5 -4.296875 4.34375 -4.234375 4.25 -4.09375 C 4.234375 -4.03125 4.140625 -3.734375 4.109375 -3.546875 C 4.03125 -3.296875 3.96875 -3.015625 3.90625 -2.75 L 3.453125 -0.953125 C 3.421875 -0.8125 2.984375 -0.109375 2.328125 -0.109375 C 1.828125 -0.109375 1.71875 -0.546875 1.71875 -0.921875 C 1.71875 -1.375 1.890625 -2 2.21875 -2.875 C 2.375 -3.28125 2.421875 -3.390625 2.421875 -3.59375 C 2.421875 -4.03125 2.109375 -4.40625 1.609375 -4.40625 C 0.65625 -4.40625 0.296875 -2.953125 0.296875 -2.875 C 0.296875 -2.765625 0.390625 -2.765625 0.40625 -2.765625 C 0.515625 -2.765625 0.515625 -2.796875 0.5625 -2.953125 C 0.84375 -3.890625 1.234375 -4.1875 1.578125 -4.1875 C 1.65625 -4.1875 1.828125 -4.1875 1.828125 -3.875 C 1.828125 -3.625 1.71875 -3.359375 1.65625 -3.171875 C 1.25 -2.109375 1.078125 -1.546875 1.078125 -1.078125 C 1.078125 -0.1875 1.703125 0.109375 2.296875 0.109375 C 2.6875 0.109375 3.015625 -0.0625 3.296875 -0.34375 C 3.171875 0.171875 3.046875 0.671875 2.65625 1.203125 C 2.390625 1.53125 2.015625 1.828125 1.5625 1.828125 C 1.421875 1.828125 0.96875 1.796875 0.796875 1.40625 C 0.953125 1.40625 1.09375 1.40625 1.21875 1.28125 C 1.328125 1.203125 1.421875 1.0625 1.421875 0.875 C 1.421875 0.5625 1.15625 0.53125 1.0625 0.53125 C 0.828125 0.53125 0.5 0.6875 0.5 1.171875 C 0.5 1.671875 0.9375 2.046875 1.5625 2.046875 C 2.578125 2.046875 3.609375 1.140625 3.890625 0.015625 Z M 4.84375 -3.796875 "/>
</symbol>
<symbol overflow="visible" id="glyph0-3">
<path style="stroke:none;" d="M 3.328125 -3.015625 C 3.390625 -3.265625 3.625 -4.1875 4.3125 -4.1875 C 4.359375 -4.1875 4.609375 -4.1875 4.8125 -4.0625 C 4.53125 -4 4.34375 -3.765625 4.34375 -3.515625 C 4.34375 -3.359375 4.453125 -3.171875 4.71875 -3.171875 C 4.9375 -3.171875 5.25 -3.34375 5.25 -3.75 C 5.25 -4.265625 4.671875 -4.40625 4.328125 -4.40625 C 3.75 -4.40625 3.40625 -3.875 3.28125 -3.65625 C 3.03125 -4.3125 2.5 -4.40625 2.203125 -4.40625 C 1.171875 -4.40625 0.59375 -3.125 0.59375 -2.875 C 0.59375 -2.765625 0.703125 -2.765625 0.71875 -2.765625 C 0.796875 -2.765625 0.828125 -2.796875 0.84375 -2.875 C 1.1875 -3.9375 1.84375 -4.1875 2.1875 -4.1875 C 2.375 -4.1875 2.71875 -4.09375 2.71875 -3.515625 C 2.71875 -3.203125 2.546875 -2.546875 2.1875 -1.140625 C 2.03125 -0.53125 1.671875 -0.109375 1.234375 -0.109375 C 1.171875 -0.109375 0.953125 -0.109375 0.734375 -0.234375 C 0.984375 -0.296875 1.203125 -0.5 1.203125 -0.78125 C 1.203125 -1.046875 0.984375 -1.125 0.84375 -1.125 C 0.53125 -1.125 0.296875 -0.875 0.296875 -0.546875 C 0.296875 -0.09375 0.78125 0.109375 1.21875 0.109375 C 1.890625 0.109375 2.25 -0.59375 2.265625 -0.640625 C 2.390625 -0.28125 2.75 0.109375 3.34375 0.109375 C 4.375 0.109375 4.9375 -1.171875 4.9375 -1.421875 C 4.9375 -1.53125 4.859375 -1.53125 4.828125 -1.53125 C 4.734375 -1.53125 4.71875 -1.484375 4.6875 -1.421875 C 4.359375 -0.34375 3.6875 -0.109375 3.375 -0.109375 C 2.984375 -0.109375 2.828125 -0.421875 2.828125 -0.765625 C 2.828125 -0.984375 2.875 -1.203125 2.984375 -1.640625 Z M 3.328125 -3.015625 "/>
</symbol>
<symbol overflow="visible" id="glyph0-4">
<path style="stroke:none;" d="M 1.90625 -0.53125 C 1.90625 -0.8125 1.671875 -1.0625 1.390625 -1.0625 C 1.09375 -1.0625 0.859375 -0.8125 0.859375 -0.53125 C 0.859375 -0.234375 1.09375 0 1.390625 0 C 1.671875 0 1.90625 -0.234375 1.90625 -0.53125 Z M 1.90625 -0.53125 "/>
</symbol>
<symbol overflow="visible" id="glyph1-0">
<path style="stroke:none;" d=""/>
</symbol>
<symbol overflow="visible" id="glyph1-1">
<path style="stroke:none;" d="M 6.84375 -3.265625 C 7 -3.265625 7.1875 -3.265625 7.1875 -3.453125 C 7.1875 -3.65625 7 -3.65625 6.859375 -3.65625 L 0.890625 -3.65625 C 0.75 -3.65625 0.5625 -3.65625 0.5625 -3.453125 C 0.5625 -3.265625 0.75 -3.265625 0.890625 -3.265625 Z M 6.859375 -1.328125 C 7 -1.328125 7.1875 -1.328125 7.1875 -1.53125 C 7.1875 -1.71875 7 -1.71875 6.84375 -1.71875 L 0.890625 -1.71875 C 0.75 -1.71875 0.5625 -1.71875 0.5625 -1.53125 C 0.5625 -1.328125 0.75 -1.328125 0.890625 -1.328125 Z M 6.859375 -1.328125 "/>
</symbol>
<symbol overflow="visible" id="glyph1-2">
<path style="stroke:none;" d="M 2.078125 -1.9375 C 2.296875 -1.890625 3.109375 -1.734375 3.109375 -1.015625 C 3.109375 -0.515625 2.765625 -0.109375 1.984375 -0.109375 C 1.140625 -0.109375 0.78125 -0.671875 0.59375 -1.53125 C 0.5625 -1.65625 0.5625 -1.6875 0.453125 -1.6875 C 0.328125 -1.6875 0.328125 -1.625 0.328125 -1.453125 L 0.328125 -0.125 C 0.328125 0.046875 0.328125 0.109375 0.4375 0.109375 C 0.484375 0.109375 0.5 0.09375 0.6875 -0.09375 C 0.703125 -0.109375 0.703125 -0.125 0.890625 -0.3125 C 1.328125 0.09375 1.78125 0.109375 1.984375 0.109375 C 3.125 0.109375 3.59375 -0.5625 3.59375 -1.28125 C 3.59375 -1.796875 3.296875 -2.109375 3.171875 -2.21875 C 2.84375 -2.546875 2.453125 -2.625 2.03125 -2.703125 C 1.46875 -2.8125 0.8125 -2.9375 0.8125 -3.515625 C 0.8125 -3.875 1.0625 -4.28125 1.921875 -4.28125 C 3.015625 -4.28125 3.078125 -3.375 3.09375 -3.078125 C 3.09375 -2.984375 3.1875 -2.984375 3.203125 -2.984375 C 3.34375 -2.984375 3.34375 -3.03125 3.34375 -3.21875 L 3.34375 -4.234375 C 3.34375 -4.390625 3.34375 -4.46875 3.234375 -4.46875 C 3.1875 -4.46875 3.15625 -4.46875 3.03125 -4.34375 C 3 -4.3125 2.90625 -4.21875 2.859375 -4.1875 C 2.484375 -4.46875 2.078125 -4.46875 1.921875 -4.46875 C 0.703125 -4.46875 0.328125 -3.796875 0.328125 -3.234375 C 0.328125 -2.890625 0.484375 -2.609375 0.75 -2.390625 C 1.078125 -2.140625 1.359375 -2.078125 2.078125 -1.9375 Z M 2.078125 -1.9375 "/>
</symbol>
<symbol overflow="visible" id="glyph1-3">
<path style="stroke:none;" d="M 1.765625 -4.40625 L 0.375 -4.296875 L 0.375 -3.984375 C 1.015625 -3.984375 1.109375 -3.921875 1.109375 -3.4375 L 1.109375 -0.75 C 1.109375 -0.3125 1 -0.3125 0.328125 -0.3125 L 0.328125 0 C 0.640625 -0.015625 1.1875 -0.03125 1.421875 -0.03125 C 1.78125 -0.03125 2.125 -0.015625 2.46875 0 L 2.46875 -0.3125 C 1.796875 -0.3125 1.765625 -0.359375 1.765625 -0.75 Z M 1.796875 -6.140625 C 1.796875 -6.453125 1.5625 -6.671875 1.28125 -6.671875 C 0.96875 -6.671875 0.75 -6.40625 0.75 -6.140625 C 0.75 -5.875 0.96875 -5.609375 1.28125 -5.609375 C 1.5625 -5.609375 1.796875 -5.828125 1.796875 -6.140625 Z M 1.796875 -6.140625 "/>
</symbol>
<symbol overflow="visible" id="glyph1-4">
<path style="stroke:none;" d="M 1.09375 -3.421875 L 1.09375 -0.75 C 1.09375 -0.3125 0.984375 -0.3125 0.3125 -0.3125 L 0.3125 0 C 0.671875 -0.015625 1.171875 -0.03125 1.453125 -0.03125 C 1.703125 -0.03125 2.21875 -0.015625 2.5625 0 L 2.5625 -0.3125 C 1.890625 -0.3125 1.78125 -0.3125 1.78125 -0.75 L 1.78125 -2.59375 C 1.78125 -3.625 2.5 -4.1875 3.125 -4.1875 C 3.765625 -4.1875 3.875 -3.65625 3.875 -3.078125 L 3.875 -0.75 C 3.875 -0.3125 3.765625 -0.3125 3.09375 -0.3125 L 3.09375 0 C 3.4375 -0.015625 3.953125 -0.03125 4.21875 -0.03125 C 4.46875 -0.03125 5 -0.015625 5.328125 0 L 5.328125 -0.3125 C 4.8125 -0.3125 4.5625 -0.3125 4.5625 -0.609375 L 4.5625 -2.515625 C 4.5625 -3.375 4.5625 -3.671875 4.25 -4.03125 C 4.109375 -4.203125 3.78125 -4.40625 3.203125 -4.40625 C 2.46875 -4.40625 2 -3.984375 1.71875 -3.359375 L 1.71875 -4.40625 L 0.3125 -4.296875 L 0.3125 -3.984375 C 1.015625 -3.984375 1.09375 -3.921875 1.09375 -3.421875 Z M 1.09375 -3.421875 "/>
</symbol>
<symbol overflow="visible" id="glyph1-5">
<path style="stroke:none;" d="M 3.296875 2.390625 C 3.296875 2.359375 3.296875 2.34375 3.125 2.171875 C 1.890625 0.921875 1.5625 -0.96875 1.5625 -2.5 C 1.5625 -4.234375 1.9375 -5.96875 3.171875 -7.203125 C 3.296875 -7.328125 3.296875 -7.34375 3.296875 -7.375 C 3.296875 -7.453125 3.265625 -7.484375 3.203125 -7.484375 C 3.09375 -7.484375 2.203125 -6.796875 1.609375 -5.53125 C 1.109375 -4.4375 0.984375 -3.328125 0.984375 -2.5 C 0.984375 -1.71875 1.09375 -0.515625 1.640625 0.625 C 2.25 1.84375 3.09375 2.5 3.203125 2.5 C 3.265625 2.5 3.296875 2.46875 3.296875 2.390625 Z M 3.296875 2.390625 "/>
</symbol>
<symbol overflow="visible" id="glyph1-6">
<path style="stroke:none;" d="M 2.890625 -3.515625 C 3.703125 -3.78125 4.28125 -4.46875 4.28125 -5.265625 C 4.28125 -6.078125 3.40625 -6.640625 2.453125 -6.640625 C 1.453125 -6.640625 0.6875 -6.046875 0.6875 -5.28125 C 0.6875 -4.953125 0.90625 -4.765625 1.203125 -4.765625 C 1.5 -4.765625 1.703125 -4.984375 1.703125 -5.28125 C 1.703125 -5.765625 1.234375 -5.765625 1.09375 -5.765625 C 1.390625 -6.265625 2.046875 -6.390625 2.40625 -6.390625 C 2.828125 -6.390625 3.375 -6.171875 3.375 -5.28125 C 3.375 -5.15625 3.34375 -4.578125 3.09375 -4.140625 C 2.796875 -3.65625 2.453125 -3.625 2.203125 -3.625 C 2.125 -3.609375 1.890625 -3.59375 1.8125 -3.59375 C 1.734375 -3.578125 1.671875 -3.5625 1.671875 -3.46875 C 1.671875 -3.359375 1.734375 -3.359375 1.90625 -3.359375 L 2.34375 -3.359375 C 3.15625 -3.359375 3.53125 -2.6875 3.53125 -1.703125 C 3.53125 -0.34375 2.84375 -0.0625 2.40625 -0.0625 C 1.96875 -0.0625 1.21875 -0.234375 0.875 -0.8125 C 1.21875 -0.765625 1.53125 -0.984375 1.53125 -1.359375 C 1.53125 -1.71875 1.265625 -1.921875 0.984375 -1.921875 C 0.734375 -1.921875 0.421875 -1.78125 0.421875 -1.34375 C 0.421875 -0.4375 1.34375 0.21875 2.4375 0.21875 C 3.65625 0.21875 4.5625 -0.6875 4.5625 -1.703125 C 4.5625 -2.515625 3.921875 -3.296875 2.890625 -3.515625 Z M 2.890625 -3.515625 "/>
</symbol>
<symbol overflow="visible" id="glyph1-7">
<path style="stroke:none;" d="M 2.875 -2.5 C 2.875 -3.265625 2.765625 -4.46875 2.21875 -5.609375 C 1.625 -6.828125 0.765625 -7.484375 0.671875 -7.484375 C 0.609375 -7.484375 0.5625 -7.4375 0.5625 -7.375 C 0.5625 -7.34375 0.5625 -7.328125 0.75 -7.140625 C 1.734375 -6.15625 2.296875 -4.578125 2.296875 -2.5 C 2.296875 -0.78125 1.9375 0.96875 0.703125 2.21875 C 0.5625 2.34375 0.5625 2.359375 0.5625 2.390625 C 0.5625 2.453125 0.609375 2.5 0.671875 2.5 C 0.765625 2.5 1.671875 1.8125 2.25 0.546875 C 2.765625 -0.546875 2.875 -1.65625 2.875 -2.5 Z M 2.875 -2.5 "/>
</symbol>
<symbol overflow="visible" id="glyph1-8">
<path style="stroke:none;" d="M 4.078125 -2.296875 L 6.859375 -2.296875 C 7 -2.296875 7.1875 -2.296875 7.1875 -2.5 C 7.1875 -2.6875 7 -2.6875 6.859375 -2.6875 L 4.078125 -2.6875 L 4.078125 -5.484375 C 4.078125 -5.625 4.078125 -5.8125 3.875 -5.8125 C 3.671875 -5.8125 3.671875 -5.625 3.671875 -5.484375 L 3.671875 -2.6875 L 0.890625 -2.6875 C 0.75 -2.6875 0.5625 -2.6875 0.5625 -2.5 C 0.5625 -2.296875 0.75 -2.296875 0.890625 -2.296875 L 3.671875 -2.296875 L 3.671875 0.5 C 3.671875 0.640625 3.671875 0.828125 3.875 0.828125 C 4.078125 0.828125 4.078125 0.640625 4.078125 0.5 Z M 4.078125 -2.296875 "/>
</symbol>
<symbol overflow="visible" id="glyph1-9">
<path style="stroke:none;" d="M 4.578125 -3.1875 C 4.578125 -3.984375 4.53125 -4.78125 4.1875 -5.515625 C 3.734375 -6.484375 2.90625 -6.640625 2.5 -6.640625 C 1.890625 -6.640625 1.171875 -6.375 0.75 -5.453125 C 0.4375 -4.765625 0.390625 -3.984375 0.390625 -3.1875 C 0.390625 -2.4375 0.421875 -1.546875 0.84375 -0.78125 C 1.265625 0.015625 2 0.21875 2.484375 0.21875 C 3.015625 0.21875 3.78125 0.015625 4.21875 -0.9375 C 4.53125 -1.625 4.578125 -2.40625 4.578125 -3.1875 Z M 2.484375 0 C 2.09375 0 1.5 -0.25 1.328125 -1.203125 C 1.21875 -1.796875 1.21875 -2.71875 1.21875 -3.3125 C 1.21875 -3.953125 1.21875 -4.609375 1.296875 -5.140625 C 1.484375 -6.328125 2.234375 -6.421875 2.484375 -6.421875 C 2.8125 -6.421875 3.46875 -6.234375 3.65625 -5.25 C 3.765625 -4.6875 3.765625 -3.9375 3.765625 -3.3125 C 3.765625 -2.5625 3.765625 -1.890625 3.65625 -1.25 C 3.5 -0.296875 2.9375 0 2.484375 0 Z M 2.484375 0 "/>
</symbol>
<symbol overflow="visible" id="glyph1-10">
<path style="stroke:none;" d="M 4.46875 -2 C 4.46875 -3.1875 3.65625 -4.1875 2.578125 -4.1875 C 2.109375 -4.1875 1.671875 -4.03125 1.3125 -3.671875 L 1.3125 -5.625 C 1.515625 -5.5625 1.84375 -5.5 2.15625 -5.5 C 3.390625 -5.5 4.09375 -6.40625 4.09375 -6.53125 C 4.09375 -6.59375 4.0625 -6.640625 3.984375 -6.640625 C 3.984375 -6.640625 3.953125 -6.640625 3.90625 -6.609375 C 3.703125 -6.515625 3.21875 -6.3125 2.546875 -6.3125 C 2.15625 -6.3125 1.6875 -6.390625 1.21875 -6.59375 C 1.140625 -6.625 1.125 -6.625 1.109375 -6.625 C 1 -6.625 1 -6.546875 1 -6.390625 L 1 -3.4375 C 1 -3.265625 1 -3.1875 1.140625 -3.1875 C 1.21875 -3.1875 1.234375 -3.203125 1.28125 -3.265625 C 1.390625 -3.421875 1.75 -3.96875 2.5625 -3.96875 C 3.078125 -3.96875 3.328125 -3.515625 3.40625 -3.328125 C 3.5625 -2.953125 3.59375 -2.578125 3.59375 -2.078125 C 3.59375 -1.71875 3.59375 -1.125 3.34375 -0.703125 C 3.109375 -0.3125 2.734375 -0.0625 2.28125 -0.0625 C 1.5625 -0.0625 0.984375 -0.59375 0.8125 -1.171875 C 0.84375 -1.171875 0.875 -1.15625 0.984375 -1.15625 C 1.3125 -1.15625 1.484375 -1.40625 1.484375 -1.640625 C 1.484375 -1.890625 1.3125 -2.140625 0.984375 -2.140625 C 0.84375 -2.140625 0.5 -2.0625 0.5 -1.609375 C 0.5 -0.75 1.1875 0.21875 2.296875 0.21875 C 3.453125 0.21875 4.46875 -0.734375 4.46875 -2 Z M 4.46875 -2 "/>
</symbol>
<symbol overflow="visible" id="glyph1-11">
<path style="stroke:none;" d="M 1.265625 -0.765625 L 2.328125 -1.796875 C 3.875 -3.171875 4.46875 -3.703125 4.46875 -4.703125 C 4.46875 -5.84375 3.578125 -6.640625 2.359375 -6.640625 C 1.234375 -6.640625 0.5 -5.71875 0.5 -4.828125 C 0.5 -4.28125 1 -4.28125 1.03125 -4.28125 C 1.203125 -4.28125 1.546875 -4.390625 1.546875 -4.8125 C 1.546875 -5.0625 1.359375 -5.328125 1.015625 -5.328125 C 0.9375 -5.328125 0.921875 -5.328125 0.890625 -5.3125 C 1.109375 -5.96875 1.65625 -6.328125 2.234375 -6.328125 C 3.140625 -6.328125 3.5625 -5.515625 3.5625 -4.703125 C 3.5625 -3.90625 3.078125 -3.125 2.515625 -2.5 L 0.609375 -0.375 C 0.5 -0.265625 0.5 -0.234375 0.5 0 L 4.203125 0 L 4.46875 -1.734375 L 4.234375 -1.734375 C 4.171875 -1.4375 4.109375 -1 4 -0.84375 C 3.9375 -0.765625 3.28125 -0.765625 3.0625 -0.765625 Z M 1.265625 -0.765625 "/>
</symbol>
</g>
</defs>
<g id="surface1">
<path style="fill:none;stroke-width:0.3985;stroke-linecap:butt;stroke-linejoin:miter;stroke:rgb(0%,0%,0%);stroke-opacity:1;stroke-miterlimit:10;" d="M -24.612594 87.617781 L 267.012406 87.617781 " transform="matrix(1,0,0,-1,26.804,217.817)"/>
<path style="fill-rule:nonzero;fill:rgb(0%,0%,0%);fill-opacity:1;stroke-width:0.3985;stroke-linecap:butt;stroke-linejoin:miter;stroke:rgb(0%,0%,0%);stroke-opacity:1;stroke-miterlimit:10;" d="M 5.171401 -0.00033875 L 0.644058 1.702786 L 2.128433 -0.00033875 L 0.644058 -1.703464 Z M 5.171401 -0.00033875 " transform="matrix(1,0,0,-1,291.78563,130.19888)"/>
<path style="fill:none;stroke-width:0.3985;stroke-linecap:butt;stroke-linejoin:miter;stroke:rgb(0%,0%,0%);stroke-opacity:1;stroke-miterlimit:10;" d="M 123.055375 -17.522844 L 123.055375 189.051375 " transform="matrix(1,0,0,-1,26.804,217.817)"/>
<path style="fill-rule:nonzero;fill:rgb(0%,0%,0%);fill-opacity:1;stroke-width:0.3985;stroke-linecap:butt;stroke-linejoin:miter;stroke:rgb(0%,0%,0%);stroke-opacity:1;stroke-miterlimit:10;" d="M 5.16958 -0.001455 L 0.642236 1.705576 L 2.130517 -0.001455 L 0.642236 -1.70458 Z M 5.16958 -0.001455 " transform="matrix(0,-1,-1,0,149.85792,30.79458)"/>
<g style="fill:rgb(0%,0%,0%);fill-opacity:1;">
  <use xlink:href="#glyph0-1" x="136.469" y="142.519"/>
</g>
<path style="fill:none;stroke-width:0.79701;stroke-linecap:butt;stroke-linejoin:miter;stroke:rgb(100%,0%,0%);stroke-opacity:1;stroke-miterlimit:10;" d="M 0.0006875 152.34825 L 1.653031 151.707625 L 3.301469 150.922469 L 4.953812 149.981063 L 6.606156 148.891219 L 8.2585 147.66075 L 9.910844 146.289656 L 11.563187 144.78575 L 13.215531 143.152938 L 14.863969 141.395125 L 16.516312 139.524031 L 18.168656 137.539656 L 19.821 135.457625 L 21.473344 133.281844 L 23.125687 131.012313 L 24.774125 128.672469 L 26.426469 126.258406 L 28.078812 123.78575 L 29.731156 121.2545 L 31.3835 118.688094 L 33.035844 116.086531 L 34.684281 113.457625 L 36.336625 110.817 L 37.988969 108.172469 L 39.641312 105.531844 L 41.293656 102.906844 L 42.946 100.301375 L 44.594437 97.734969 L 46.246781 95.207625 L 47.899125 92.734969 L 49.551469 90.324813 L 51.203812 87.981063 L 52.856156 85.719344 L 54.504594 83.543563 L 56.156937 81.461531 L 57.809281 79.481063 L 59.461625 77.609969 L 61.113969 75.856063 L 62.766312 74.227156 L 64.418656 72.727156 L 66.067094 71.356063 L 67.719437 70.1295 L 69.371781 69.043563 L 71.024125 68.106063 L 72.676469 67.320906 L 74.328812 66.688094 L 75.97725 66.211531 L 77.629594 65.895125 L 79.281937 65.734969 L 80.934281 65.734969 L 82.586625 65.895125 L 84.238969 66.215438 L 85.887406 66.692 L 87.53975 67.328719 L 89.192094 68.113875 L 90.844437 69.055281 L 92.496781 70.137313 L 94.149125 71.371688 L 95.797562 72.738875 L 97.449906 74.242781 L 99.10225 75.875594 L 100.754594 77.6295 L 102.406938 79.500594 L 104.059281 81.481063 L 105.707719 83.563094 L 107.360063 85.738875 L 109.012406 88.0045 L 110.66475 90.34825 L 112.317094 92.762313 L 113.969438 95.234969 L 115.621781 97.758406 L 117.270219 100.328719 L 118.922563 102.930281 L 120.574906 105.555281 L 122.22725 108.199813 L 123.879594 110.840438 L 125.531938 113.484969 L 127.180375 116.109969 L 128.832719 118.711531 L 130.485063 121.281844 L 132.137406 123.809188 L 133.78975 126.281844 L 135.442094 128.692 L 137.090531 131.03575 L 138.742875 133.301375 L 140.395219 135.477156 L 142.047563 137.563094 L 143.699906 139.543563 L 145.35225 141.414656 L 147.000688 143.168563 L 148.653031 144.801375 L 150.305375 146.305281 L 151.957719 147.672469 L 153.610063 148.902938 L 155.262406 149.988875 L 156.910844 150.930281 L 158.563188 151.715438 L 160.215531 152.352156 L 161.867875 152.828719 L 163.520219 153.149031 L 165.172563 153.309188 L 166.824906 153.309188 L 168.473344 153.152938 L 170.125688 152.832625 L 171.778031 152.359969 L 173.430375 151.727156 L 175.082719 150.942 L 176.735063 150.0045 L 178.3835 148.918563 L 180.035844 147.688094 L 181.688188 146.320906 L 183.340531 144.820906 L 184.992875 143.192 L 186.645219 141.438094 L 188.293656 139.567 L 189.946 137.586531 L 191.598344 135.5045 L 193.250688 133.332625 L 194.903031 131.067 L 196.555375 128.72325 L 198.203813 126.313094 L 199.856156 123.840438 L 201.5085 121.313094 L 203.160844 118.746688 L 204.813188 116.145125 L 206.465531 113.516219 L 208.113969 110.875594 L 209.766313 108.231063 L 211.418656 105.590438 L 213.071 102.965438 L 214.723344 100.363875 L 216.375688 97.793563 L 218.024125 95.266219 L 219.676469 92.793563 L 221.328813 90.3795 L 222.981156 88.03575 L 224.6335 85.770125 L 226.285844 83.590438 L 227.938188 81.508406 L 229.586625 79.524031 L 231.238969 77.652938 L 232.891313 75.895125 L 234.543656 74.262313 L 236.196 72.758406 L 237.848344 71.387313 L 239.496781 70.152938 L 241.149125 69.067 L 242.801469 68.125594 L 244.453813 67.336531 L 246.106156 66.699813 " transform="matrix(1,0,0,-1,26.804,217.817)"/>
<g style="fill:rgb(100%,0%,0%);fill-opacity:1;">
  <use xlink:href="#glyph0-2" x="209.488" y="156.137"/>
</g>
<g style="fill:rgb(100%,0%,0%);fill-opacity:1;">
  <use xlink:href="#glyph1-1" x="217.500919" y="156.137"/>
</g>
<g style="fill:rgb(100%,0%,0%);fill-opacity:1;">
  <use xlink:href="#glyph1-2" x="228.00947" y="156.137"/>
  <use xlink:href="#glyph1-3" x="231.938719" y="156.137"/>
  <use xlink:href="#glyph1-4" x="234.706329" y="156.137"/>
  <use xlink:href="#glyph1-5" x="240.24155" y="156.137"/>
  <use xlink:href="#glyph1-6" x="244.116005" y="156.137"/>
</g>
<g style="fill:rgb(100%,0%,0%);fill-opacity:1;">
  <use xlink:href="#glyph0-3" x="249.097305" y="156.137"/>
</g>
<g style="fill:rgb(100%,0%,0%);fill-opacity:1;">
  <use xlink:href="#glyph1-7" x="254.790931" y="156.137"/>
</g>
<g style="fill:rgb(100%,0%,0%);fill-opacity:1;">
  <use xlink:href="#glyph1-8" x="260.887046" y="156.137"/>
</g>
<g style="fill:rgb(100%,0%,0%);fill-opacity:1;">
  <use xlink:href="#glyph1-9" x="270.847653" y="156.137"/>
</g>
<g style="fill:rgb(100%,0%,0%);fill-opacity:1;">
  <use xlink:href="#glyph0-4" x="275.828953" y="156.137"/>
</g>
<g style="fill:rgb(100%,0%,0%);fill-opacity:1;">
  <use xlink:href="#glyph1-10" x="278.596564" y="156.137"/>
</g>
<path style="fill:none;stroke-width:0.79701;stroke-linecap:butt;stroke-linejoin:miter;stroke:rgb(0%,0%,100%);stroke-opacity:1;stroke-miterlimit:10;" d="M 41.016312 0.00059375 L 44.367875 3.574813 L 47.715531 7.152938 L 51.063187 10.727156 L 54.410844 14.305281 L 57.7585 17.8795 L 61.110062 21.457625 L 64.457719 25.031844 L 67.805375 28.609969 L 71.153031 32.184188 L 74.500687 35.762313 L 77.848344 39.336531 L 81.199906 42.914656 L 84.547562 46.492781 L 87.895219 50.067 L 91.242875 53.645125 L 94.590531 57.219344 L 97.942094 60.797469 L 101.28975 64.371688 L 104.637406 67.949813 L 107.985063 71.524031 L 111.332719 75.102156 L 114.680375 78.676375 L 118.031938 82.2545 L 121.379594 85.828719 L 124.72725 89.406844 L 128.074906 92.981063 L 131.422563 96.559188 L 134.774125 100.133406 L 138.121781 103.711531 L 141.469438 107.28575 L 144.817094 110.863875 L 148.16475 114.438094 L 151.516313 118.016219 L 154.863969 121.590438 L 158.211625 125.168563 L 161.559281 128.742781 L 164.906938 132.320906 L 168.254594 135.895125 L 171.606156 139.47325 L 174.953813 143.047469 L 178.301469 146.625594 L 181.649125 150.199813 L 184.996781 153.777938 L 188.348344 157.352156 L 191.696 160.930281 L 195.043656 164.5045 L 198.391313 168.082625 L 201.738969 171.656844 L 205.086625 175.234969 " transform="matrix(1,0,0,-1,26.804,217.817)"/>
<g style="fill:rgb(0%,0%,100%);fill-opacity:1;">
  <use xlink:href="#glyph0-2" x="174.361" y="63.214"/>
</g>
<g style="fill:rgb(0%,0%,100%);fill-opacity:1;">
  <use xlink:href="#glyph1-1" x="182.373919" y="63.214"/>
</g>
<g style="fill:rgb(0%,0%,100%);fill-opacity:1;">
  <use xlink:href="#glyph1-11" x="192.88247" y="63.214"/>
</g>
<g style="fill:rgb(0%,0%,100%);fill-opacity:1;">
  <use xlink:href="#glyph0-3" x="197.86377" y="63.214"/>
</g>
<g style="fill:rgb(0%,0%,0%);fill-opacity:1;">
  <use xlink:href="#glyph0-3" x="311.06" y="132.326"/>
</g>
<g style="fill:rgb(0%,0%,0%);fill-opacity:1;">
  <use xlink:href="#glyph0-2" x="147.256" y="9.602"/>
</g>
</g>
</svg>
