<?xml version="1.0" encoding="UTF-8"?>
<svg xmlns="http://www.w3.org/2000/svg" xmlns:xlink="http://www.w3.org/1999/xlink" width="261.038pt" height="195.389pt" viewBox="0 0 261.038 195.389" version="1.1">
<defs>
<g>
<symbol overflow="visible" id="glyph0-0">
<path style="stroke:none;" d=""/>
</symbol>
<symbol overflow="visible" id="glyph0-1">
<path style="stroke:none;" d="M 3.734375 -6.125 C 3.796875 -6.359375 3.828125 -6.453125 4.015625 -6.484375 C 4.109375 -6.5 4.421875 -6.5 4.625 -6.5 C 5.328125 -6.5 6.4375 -6.5 6.4375 -5.515625 C 6.4375 -5.171875 6.28125 -4.484375 5.890625 -4.09375 C 5.625 -3.84375 5.109375 -3.515625 4.203125 -3.515625 L 3.09375 -3.515625 Z M 5.171875 -3.390625 C 6.1875 -3.609375 7.359375 -4.3125 7.359375 -5.3125 C 7.359375 -6.171875 6.46875 -6.8125 5.15625 -6.8125 L 2.328125 -6.8125 C 2.125 -6.8125 2.03125 -6.8125 2.03125 -6.609375 C 2.03125 -6.5 2.125 -6.5 2.3125 -6.5 C 2.328125 -6.5 2.515625 -6.5 2.6875 -6.484375 C 2.875 -6.453125 2.953125 -6.453125 2.953125 -6.3125 C 2.953125 -6.28125 2.953125 -6.25 2.921875 -6.125 L 1.578125 -0.78125 C 1.484375 -0.390625 1.46875 -0.3125 0.671875 -0.3125 C 0.5 -0.3125 0.40625 -0.3125 0.40625 -0.109375 C 0.40625 0 0.53125 0 0.546875 0 C 0.828125 0 1.53125 -0.03125 1.796875 -0.03125 C 2.078125 -0.03125 2.796875 0 3.078125 0 C 3.15625 0 3.265625 0 3.265625 -0.203125 C 3.265625 -0.3125 3.1875 -0.3125 2.984375 -0.3125 C 2.625 -0.3125 2.34375 -0.3125 2.34375 -0.484375 C 2.34375 -0.546875 2.359375 -0.59375 2.375 -0.65625 L 3.03125 -3.296875 L 4.21875 -3.296875 C 5.125 -3.296875 5.296875 -2.734375 5.296875 -2.390625 C 5.296875 -2.25 5.21875 -1.9375 5.15625 -1.703125 C 5.09375 -1.421875 5 -1.0625 5 -0.859375 C 5 0.21875 6.203125 0.21875 6.328125 0.21875 C 7.171875 0.21875 7.53125 -0.78125 7.53125 -0.921875 C 7.53125 -1.046875 7.421875 -1.046875 7.40625 -1.046875 C 7.3125 -1.046875 7.296875 -0.984375 7.28125 -0.90625 C 7.03125 -0.171875 6.59375 0 6.375 0 C 6.046875 0 5.96875 -0.21875 5.96875 -0.609375 C 5.96875 -0.921875 6.03125 -1.421875 6.078125 -1.75 C 6.09375 -1.890625 6.109375 -2.078125 6.109375 -2.21875 C 6.109375 -2.984375 5.4375 -3.296875 5.171875 -3.390625 Z M 5.171875 -3.390625 "/>
</symbol>
<symbol overflow="visible" id="glyph0-2">
<path style="stroke:none;" d="M 7.578125 -6.921875 C 7.578125 -6.953125 7.5625 -7.03125 7.46875 -7.03125 C 7.4375 -7.03125 7.421875 -7.015625 7.3125 -6.90625 L 6.625 -6.140625 C 6.53125 -6.28125 6.078125 -7.03125 4.96875 -7.03125 C 2.734375 -7.03125 0.5 -4.828125 0.5 -2.515625 C 0.5 -0.875 1.671875 0.21875 3.203125 0.21875 C 4.0625 0.21875 4.828125 -0.171875 5.359375 -0.640625 C 6.28125 -1.453125 6.453125 -2.359375 6.453125 -2.390625 C 6.453125 -2.5 6.34375 -2.5 6.328125 -2.5 C 6.265625 -2.5 6.21875 -2.46875 6.203125 -2.390625 C 6.109375 -2.109375 5.875 -1.390625 5.1875 -0.8125 C 4.5 -0.265625 3.875 -0.09375 3.359375 -0.09375 C 2.46875 -0.09375 1.40625 -0.609375 1.40625 -2.15625 C 1.40625 -2.734375 1.609375 -4.34375 2.609375 -5.515625 C 3.21875 -6.21875 4.15625 -6.71875 5.046875 -6.71875 C 6.0625 -6.71875 6.65625 -5.953125 6.65625 -4.796875 C 6.65625 -4.390625 6.625 -4.390625 6.625 -4.28125 C 6.625 -4.1875 6.734375 -4.1875 6.765625 -4.1875 C 6.890625 -4.1875 6.890625 -4.203125 6.953125 -4.390625 Z M 7.578125 -6.921875 "/>
</symbol>
<symbol overflow="visible" id="glyph0-3">
<path style="stroke:none;" d="M 3.015625 -3.15625 L 4.71875 -3.15625 C 6.125 -3.15625 7.515625 -4.1875 7.515625 -5.296875 C 7.515625 -6.078125 6.859375 -6.8125 5.546875 -6.8125 L 2.328125 -6.8125 C 2.140625 -6.8125 2.03125 -6.8125 2.03125 -6.625 C 2.03125 -6.5 2.109375 -6.5 2.3125 -6.5 C 2.4375 -6.5 2.625 -6.484375 2.734375 -6.484375 C 2.90625 -6.453125 2.953125 -6.4375 2.953125 -6.3125 C 2.953125 -6.28125 2.953125 -6.25 2.921875 -6.125 L 1.578125 -0.78125 C 1.484375 -0.390625 1.46875 -0.3125 0.671875 -0.3125 C 0.515625 -0.3125 0.40625 -0.3125 0.40625 -0.125 C 0.40625 0 0.515625 0 0.546875 0 C 0.828125 0 1.53125 -0.03125 1.8125 -0.03125 C 2.03125 -0.03125 2.25 -0.015625 2.453125 -0.015625 C 2.671875 -0.015625 2.890625 0 3.09375 0 C 3.171875 0 3.296875 0 3.296875 -0.203125 C 3.296875 -0.3125 3.203125 -0.3125 3.015625 -0.3125 C 2.65625 -0.3125 2.375 -0.3125 2.375 -0.484375 C 2.375 -0.546875 2.390625 -0.59375 2.40625 -0.65625 Z M 3.734375 -6.125 C 3.828125 -6.46875 3.84375 -6.5 4.28125 -6.5 L 5.234375 -6.5 C 6.0625 -6.5 6.59375 -6.234375 6.59375 -5.546875 C 6.59375 -5.15625 6.390625 -4.296875 6 -3.9375 C 5.5 -3.484375 4.90625 -3.40625 4.46875 -3.40625 L 3.0625 -3.40625 Z M 3.734375 -6.125 "/>
</symbol>
<symbol overflow="visible" id="glyph0-4">
<path style="stroke:none;" d="M 2.03125 -0.015625 C 2.03125 -0.671875 1.78125 -1.0625 1.390625 -1.0625 C 1.0625 -1.0625 0.859375 -0.8125 0.859375 -0.53125 C 0.859375 -0.265625 1.0625 0 1.390625 0 C 1.5 0 1.640625 -0.046875 1.734375 -0.125 C 1.765625 -0.15625 1.78125 -0.15625 1.78125 -0.15625 C 1.796875 -0.15625 1.796875 -0.15625 1.796875 -0.015625 C 1.796875 0.734375 1.453125 1.328125 1.125 1.65625 C 1.015625 1.765625 1.015625 1.78125 1.015625 1.8125 C 1.015625 1.890625 1.0625 1.921875 1.109375 1.921875 C 1.21875 1.921875 2.03125 1.15625 2.03125 -0.015625 Z M 2.03125 -0.015625 "/>
</symbol>
<symbol overflow="visible" id="glyph0-5">
<path style="stroke:none;" d="M 3.328125 -3.015625 C 3.390625 -3.265625 3.625 -4.1875 4.3125 -4.1875 C 4.359375 -4.1875 4.609375 -4.1875 4.8125 -4.0625 C 4.53125 -4 4.34375 -3.765625 4.34375 -3.515625 C 4.34375 -3.359375 4.453125 -3.171875 4.71875 -3.171875 C 4.9375 -3.171875 5.25 -3.34375 5.25 -3.75 C 5.25 -4.265625 4.671875 -4.40625 4.328125 -4.40625 C 3.75 -4.40625 3.40625 -3.875 3.28125 -3.65625 C 3.03125 -4.3125 2.5 -4.40625 2.203125 -4.40625 C 1.171875 -4.40625 0.59375 -3.125 0.59375 -2.875 C 0.59375 -2.765625 0.703125 -2.765625 0.71875 -2.765625 C 0.796875 -2.765625 0.828125 -2.796875 0.84375 -2.875 C 1.1875 -3.9375 1.84375 -4.1875 2.1875 -4.1875 C 2.375 -4.1875 2.71875 -4.09375 2.71875 -3.515625 C 2.71875 -3.203125 2.546875 -2.546875 2.1875 -1.140625 C 2.03125 -0.53125 1.671875 -0.109375 1.234375 -0.109375 C 1.171875 -0.109375 0.953125 -0.109375 0.734375 -0.234375 C 0.984375 -0.296875 1.203125 -0.5 1.203125 -0.78125 C 1.203125 -1.046875 0.984375 -1.125 0.84375 -1.125 C 0.53125 -1.125 0.296875 -0.875 0.296875 -0.546875 C 0.296875 -0.09375 0.78125 0.109375 1.21875 0.109375 C 1.890625 0.109375 2.25 -0.59375 2.265625 -0.640625 C 2.390625 -0.28125 2.75 0.109375 3.34375 0.109375 C 4.375 0.109375 4.9375 -1.171875 4.9375 -1.421875 C 4.9375 -1.53125 4.859375 -1.53125 4.828125 -1.53125 C 4.734375 -1.53125 4.71875 -1.484375 4.6875 -1.421875 C 4.359375 -0.34375 3.6875 -0.109375 3.375 -0.109375 C 2.984375 -0.109375 2.828125 -0.421875 2.828125 -0.765625 C 2.828125 -0.984375 2.875 -1.203125 2.984375 -1.640625 Z M 3.328125 -3.015625 "/>
</symbol>
<symbol overflow="visible" id="glyph0-6">
<path style="stroke:none;" d="M 4.84375 -3.796875 C 4.890625 -3.9375 4.890625 -3.953125 4.890625 -4.03125 C 4.890625 -4.203125 4.75 -4.296875 4.59375 -4.296875 C 4.5 -4.296875 4.34375 -4.234375 4.25 -4.09375 C 4.234375 -4.03125 4.140625 -3.734375 4.109375 -3.546875 C 4.03125 -3.296875 3.96875 -3.015625 3.90625 -2.75 L 3.453125 -0.953125 C 3.421875 -0.8125 2.984375 -0.109375 2.328125 -0.109375 C 1.828125 -0.109375 1.71875 -0.546875 1.71875 -0.921875 C 1.71875 -1.375 1.890625 -2 2.21875 -2.875 C 2.375 -3.28125 2.421875 -3.390625 2.421875 -3.59375 C 2.421875 -4.03125 2.109375 -4.40625 1.609375 -4.40625 C 0.65625 -4.40625 0.296875 -2.953125 0.296875 -2.875 C 0.296875 -2.765625 0.390625 -2.765625 0.40625 -2.765625 C 0.515625 -2.765625 0.515625 -2.796875 0.5625 -2.953125 C 0.84375 -3.890625 1.234375 -4.1875 1.578125 -4.1875 C 1.65625 -4.1875 1.828125 -4.1875 1.828125 -3.875 C 1.828125 -3.625 1.71875 -3.359375 1.65625 -3.171875 C 1.25 -2.109375 1.078125 -1.546875 1.078125 -1.078125 C 1.078125 -0.1875 1.703125 0.109375 2.296875 0.109375 C 2.6875 0.109375 3.015625 -0.0625 3.296875 -0.34375 C 3.171875 0.171875 3.046875 0.671875 2.65625 1.203125 C 2.390625 1.53125 2.015625 1.828125 1.5625 1.828125 C 1.421875 1.828125 0.96875 1.796875 0.796875 1.40625 C 0.953125 1.40625 1.09375 1.40625 1.21875 1.28125 C 1.328125 1.203125 1.421875 1.0625 1.421875 0.875 C 1.421875 0.5625 1.15625 0.53125 1.0625 0.53125 C 0.828125 0.53125 0.5 0.6875 0.5 1.171875 C 0.5 1.671875 0.9375 2.046875 1.5625 2.046875 C 2.578125 2.046875 3.609375 1.140625 3.890625 0.015625 Z M 4.84375 -3.796875 "/>
</symbol>
<symbol overflow="visible" id="glyph0-7">
<path style="stroke:none;" d="M 7.375 -4.34375 C 7.375 -5.953125 6.3125 -7.03125 4.828125 -7.03125 C 2.6875 -7.03125 0.484375 -4.765625 0.484375 -2.4375 C 0.484375 -0.78125 1.609375 0.21875 3.046875 0.21875 C 5.15625 0.21875 7.375 -1.96875 7.375 -4.34375 Z M 3.09375 -0.046875 C 2.109375 -0.046875 1.421875 -0.84375 1.421875 -2.15625 C 1.421875 -2.609375 1.5625 -4.0625 2.328125 -5.21875 C 3.015625 -6.265625 3.984375 -6.78125 4.78125 -6.78125 C 5.59375 -6.78125 6.484375 -6.21875 6.484375 -4.734375 C 6.484375 -4.015625 6.21875 -2.46875 5.234375 -1.234375 C 4.75 -0.625 3.9375 -0.046875 3.09375 -0.046875 Z M 3.09375 -0.046875 "/>
</symbol>
<symbol overflow="visible" id="glyph2-0">
<path style="stroke:none;" d=""/>
</symbol>
<symbol overflow="visible" id="glyph2-1">
<path style="stroke:none;" d="M 5.140625 17.421875 C 5.15625 17.4375 5.25 17.53125 5.25 17.53125 L 5.46875 17.53125 C 5.5 17.53125 5.578125 17.53125 5.578125 17.4375 C 5.578125 17.390625 5.5625 17.375 5.546875 17.34375 C 5.1875 16.984375 4.640625 16.4375 4.03125 15.34375 C 2.953125 13.421875 2.546875 10.96875 2.546875 8.578125 C 2.546875 4.140625 3.8125 1.546875 5.546875 -0.21875 C 5.578125 -0.25 5.578125 -0.28125 5.578125 -0.296875 C 5.578125 -0.40625 5.515625 -0.40625 5.390625 -0.40625 C 5.265625 -0.40625 5.25 -0.40625 5.15625 -0.3125 C 4.203125 0.5 3.140625 1.890625 2.453125 3.984375 C 2.03125 5.296875 1.796875 6.90625 1.796875 8.5625 C 1.796875 10.921875 2.21875 13.59375 3.78125 15.90625 C 4.0625 16.296875 4.421875 16.703125 4.421875 16.71875 C 4.53125 16.84375 4.671875 17 4.75 17.0625 Z M 5.140625 17.421875 "/>
</symbol>
<symbol overflow="visible" id="glyph2-2">
<path style="stroke:none;" d="M 4.140625 8.5625 C 4.140625 5.703125 3.484375 2.65625 1.515625 0.421875 C 1.375 0.265625 1 -0.125 0.765625 -0.34375 C 0.703125 -0.40625 0.671875 -0.40625 0.546875 -0.40625 C 0.453125 -0.40625 0.359375 -0.40625 0.359375 -0.296875 C 0.359375 -0.265625 0.40625 -0.21875 0.421875 -0.203125 C 0.75 0.15625 1.296875 0.703125 1.90625 1.796875 C 2.984375 3.703125 3.390625 6.171875 3.390625 8.5625 C 3.390625 12.890625 2.1875 15.53125 0.40625 17.359375 C 0.375 17.375 0.359375 17.40625 0.359375 17.4375 C 0.359375 17.53125 0.453125 17.53125 0.546875 17.53125 C 0.671875 17.53125 0.703125 17.53125 0.78125 17.453125 C 1.734375 16.640625 2.796875 15.25 3.484375 13.15625 C 3.921875 11.78125 4.140625 10.171875 4.140625 8.5625 Z M 4.140625 8.5625 "/>
</symbol>
<symbol overflow="visible" id="glyph3-0">
<path style="stroke:none;" d=""/>
</symbol>
<symbol overflow="visible" id="glyph3-1">
<path style="stroke:none;" d="M 2.328125 -4.4375 C 2.328125 -4.625 2.328125 -4.625 2.125 -4.625 C 1.671875 -4.1875 1.046875 -4.1875 0.765625 -4.1875 L 0.765625 -3.9375 C 0.921875 -3.9375 1.390625 -3.9375 1.765625 -4.125 L 1.765625 -0.578125 C 1.765625 -0.34375 1.765625 -0.25 1.078125 -0.25 L 0.8125 -0.25 L 0.8125 0 C 0.9375 0 1.796875 -0.03125 2.046875 -0.03125 C 2.265625 -0.03125 3.140625 0 3.296875 0 L 3.296875 -0.25 L 3.03125 -0.25 C 2.328125 -0.25 2.328125 -0.34375 2.328125 -0.578125 Z M 2.328125 -4.4375 "/>
</symbol>
<symbol overflow="visible" id="glyph3-2">
<path style="stroke:none;" d="M 3.515625 -1.265625 L 3.28125 -1.265625 C 3.265625 -1.109375 3.1875 -0.703125 3.09375 -0.640625 C 3.046875 -0.59375 2.515625 -0.59375 2.40625 -0.59375 L 1.125 -0.59375 C 1.859375 -1.234375 2.109375 -1.4375 2.515625 -1.765625 C 3.03125 -2.171875 3.515625 -2.609375 3.515625 -3.265625 C 3.515625 -4.109375 2.78125 -4.625 1.890625 -4.625 C 1.03125 -4.625 0.4375 -4.015625 0.4375 -3.375 C 0.4375 -3.03125 0.734375 -2.984375 0.8125 -2.984375 C 0.96875 -2.984375 1.171875 -3.109375 1.171875 -3.359375 C 1.171875 -3.484375 1.125 -3.734375 0.765625 -3.734375 C 0.984375 -4.21875 1.453125 -4.375 1.78125 -4.375 C 2.484375 -4.375 2.84375 -3.828125 2.84375 -3.265625 C 2.84375 -2.65625 2.40625 -2.1875 2.1875 -1.9375 L 0.515625 -0.265625 C 0.4375 -0.203125 0.4375 -0.1875 0.4375 0 L 3.3125 0 Z M 3.515625 -1.265625 "/>
</symbol>
<symbol overflow="visible" id="glyph3-3">
<path style="stroke:none;" d="M 1.90625 -2.328125 C 2.453125 -2.328125 2.84375 -1.953125 2.84375 -1.203125 C 2.84375 -0.34375 2.328125 -0.078125 1.9375 -0.078125 C 1.65625 -0.078125 1.03125 -0.15625 0.75 -0.578125 C 1.078125 -0.578125 1.15625 -0.8125 1.15625 -0.96875 C 1.15625 -1.1875 0.984375 -1.34375 0.765625 -1.34375 C 0.578125 -1.34375 0.375 -1.21875 0.375 -0.9375 C 0.375 -0.28125 1.09375 0.140625 1.9375 0.140625 C 2.90625 0.140625 3.578125 -0.515625 3.578125 -1.203125 C 3.578125 -1.75 3.140625 -2.296875 2.375 -2.453125 C 3.09375 -2.71875 3.359375 -3.234375 3.359375 -3.671875 C 3.359375 -4.21875 2.734375 -4.625 1.953125 -4.625 C 1.1875 -4.625 0.59375 -4.25 0.59375 -3.6875 C 0.59375 -3.453125 0.75 -3.328125 0.953125 -3.328125 C 1.171875 -3.328125 1.3125 -3.484375 1.3125 -3.671875 C 1.3125 -3.875 1.171875 -4.03125 0.953125 -4.046875 C 1.203125 -4.34375 1.671875 -4.421875 1.9375 -4.421875 C 2.25 -4.421875 2.6875 -4.265625 2.6875 -3.671875 C 2.6875 -3.375 2.59375 -3.046875 2.40625 -2.84375 C 2.1875 -2.578125 1.984375 -2.5625 1.640625 -2.53125 C 1.46875 -2.515625 1.453125 -2.515625 1.421875 -2.515625 C 1.40625 -2.515625 1.34375 -2.5 1.34375 -2.421875 C 1.34375 -2.328125 1.40625 -2.328125 1.53125 -2.328125 Z M 1.90625 -2.328125 "/>
</symbol>
<symbol overflow="visible" id="glyph4-0">
<path style="stroke:none;" d=""/>
</symbol>
<symbol overflow="visible" id="glyph4-1">
<path style="stroke:none;" d="M 3.09375 5.875 L 1.71875 3.15625 C 1.6875 3.09375 1.671875 3.046875 1.609375 3.046875 C 1.578125 3.046875 1.5625 3.046875 1.5 3.09375 L 0.75 3.59375 C 0.65625 3.65625 0.65625 3.6875 0.65625 3.71875 C 0.65625 3.75 0.6875 3.8125 0.75 3.8125 C 0.78125 3.8125 0.796875 3.8125 0.890625 3.75 C 0.96875 3.6875 1.15625 3.546875 1.25 3.5 L 2.78125 6.515625 C 2.828125 6.609375 2.84375 6.625 2.9375 6.625 C 3 6.625 3.078125 6.625 3.140625 6.5 L 6.640625 -0.03125 C 6.703125 -0.125 6.703125 -0.125 6.703125 -0.171875 C 6.703125 -0.28125 6.609375 -0.34375 6.53125 -0.34375 C 6.4375 -0.34375 6.390625 -0.28125 6.359375 -0.1875 Z M 3.09375 5.875 "/>
</symbol>
<symbol overflow="visible" id="glyph5-0">
<path style="stroke:none;" d=""/>
</symbol>
<symbol overflow="visible" id="glyph5-1">
<path style="stroke:none;" d="M 2.9375 -6.375 C 2.9375 -6.625 2.9375 -6.640625 2.703125 -6.640625 C 2.078125 -6 1.203125 -6 0.890625 -6 L 0.890625 -5.6875 C 1.09375 -5.6875 1.671875 -5.6875 2.1875 -5.953125 L 2.1875 -0.78125 C 2.1875 -0.421875 2.15625 -0.3125 1.265625 -0.3125 L 0.953125 -0.3125 L 0.953125 0 C 1.296875 -0.03125 2.15625 -0.03125 2.5625 -0.03125 C 2.953125 -0.03125 3.828125 -0.03125 4.171875 0 L 4.171875 -0.3125 L 3.859375 -0.3125 C 2.953125 -0.3125 2.9375 -0.421875 2.9375 -0.78125 Z M 2.9375 -6.375 "/>
</symbol>
<symbol overflow="visible" id="glyph1-0">
<g transform="matrix(1,0,0,1,0,-7)">
<rect x="0" y="0" width="1" height="1"/>
<rect x="1" y="0" width="1" height="1"/>
<rect x="2" y="0" width="1" height="1"/>
<rect x="5" y="0" width="1" height="1"/>
<rect x="6" y="0" width="1" height="1"/>
<rect x="1" y="1" width="1" height="1"/>
<rect x="2" y="1" width="1" height="1"/>
<rect x="1" y="2" width="1" height="1"/>
<rect x="3" y="2" width="1" height="1"/>
<rect x="1" y="3" width="1" height="1"/>
<rect x="3" y="3" width="1" height="1"/>
<rect x="4" y="3" width="1" height="1"/>
<rect x="1" y="4" width="1" height="1"/>
<rect x="4" y="4" width="1" height="1"/>
<rect x="1" y="5" width="1" height="1"/>
<rect x="5" y="5" width="1" height="1"/>
<rect x="1" y="6" width="1" height="1"/>
<rect x="5" y="6" width="1" height="1"/>
</g>
</symbol>
<symbol overflow="visible" id="glyph1-1">
<g transform="matrix(1,0,0,1,0,-5)">
<rect x="2" y="0" width="1" height="1"/>
<rect x="0" y="2" width="1" height="1"/>
<rect x="4" y="2" width="1" height="1"/>
<rect x="0" y="3" width="1" height="1"/>
<rect x="4" y="3" width="1" height="1"/>
<rect x="1" y="4" width="1" height="1"/>
<rect x="3" y="4" width="1" height="1"/>
</g>
</symbol>
<symbol overflow="visible" id="glyph1-2">
<g transform="matrix(1,0,0,1,0,-5)">
<rect x="1" y="1" width="1" height="1"/>
<rect x="1" y="2" width="1" height="1"/>
<rect x="1" y="3" width="1" height="1"/>
<rect x="1" y="4" width="1" height="1"/>
</g>
</symbol>
<symbol overflow="visible" id="glyph1-3">
<g transform="matrix(1,0,0,1,0,-5)">
<rect x="1" y="1" width="1" height="1"/>
<rect x="4" y="1" width="1" height="1"/>
<rect x="6" y="1" width="1" height="1"/>
<rect x="1" y="2" width="1" height="1"/>
<rect x="6" y="2" width="1" height="1"/>
<rect x="1" y="3" width="1" height="1"/>
<rect x="6" y="3" width="1" height="1"/>
<rect x="1" y="4" width="1" height="1"/>
<rect x="6" y="4" width="1" height="1"/>
</g>
</symbol>
<symbol overflow="visible" id="glyph1-4">
<g transform="matrix(1,0,0,1,0,-5)">
<rect x="2" y="0" width="1" height="1"/>
<rect x="1" y="1" width="1" height="1"/>
<rect x="3" y="1" width="1" height="1"/>
<rect x="2" y="2" width="1" height="1"/>
<rect x="3" y="2" width="1" height="1"/>
<rect x="0" y="3" width="1" height="1"/>
<rect x="3" y="3" width="1" height="1"/>
<rect x="0" y="4" width="1" height="1"/>
<rect x="3" y="4" width="1" height="1"/>
</g>
</symbol>
<symbol overflow="visible" id="glyph1-5">
<g transform="matrix(1,0,0,1,0,-7)">
<rect x="0" y="0" width="1" height="1"/>
<rect x="1" y="0" width="1" height="1"/>
<rect x="1" y="1" width="1" height="1"/>
<rect x="1" y="2" width="1" height="1"/>
<rect x="1" y="3" width="1" height="1"/>
<rect x="1" y="4" width="1" height="1"/>
<rect x="1" y="5" width="1" height="1"/>
<rect x="1" y="6" width="1" height="1"/>
</g>
</symbol>
</g>
<clipPath id="clip1">
  <path d="M 0 24 L 167 24 L 167 195.390625 L 0 195.390625 Z M 0 24 "/>
</clipPath>
<clipPath id="clip2">
  <path d="M 56 41 L 233 41 L 233 195.390625 L 56 195.390625 Z M 56 41 "/>
</clipPath>
</defs>
<g id="surface1">
<path style=" stroke:none;fill-rule:nonzero;fill:rgb(87.5%,87.5%,87.5%);fill-opacity:1;" d="M 16.707031 174.703125 L 17.378906 173.359375 L 18.054688 172.011719 L 18.726563 170.667969 L 19.398438 169.320313 L 20.074219 167.972656 L 20.742188 166.628906 L 21.417969 165.289063 L 22.089844 163.945313 L 22.765625 162.605469 L 23.4375 161.261719 L 24.109375 159.925781 L 24.78125 158.585938 L 25.453125 157.25 L 26.125 155.917969 L 26.796875 154.589844 L 27.464844 153.257813 L 28.808594 150.609375 L 29.476563 149.285156 L 30.820313 146.652344 L 31.484375 145.339844 L 32.15625 144.035156 L 32.824219 142.726563 L 34.160156 140.125 L 34.828125 138.832031 L 35.492188 137.539063 L 36.160156 136.253906 L 36.824219 134.972656 L 37.488281 133.695313 L 38.152344 132.421875 L 38.816406 131.152344 L 39.476563 129.890625 L 40.140625 128.632813 L 40.804688 127.378906 L 42.125 124.886719 L 43.445313 122.417969 L 44.101563 121.191406 L 44.757813 119.972656 L 45.414063 118.757813 L 46.726563 116.351563 L 47.378906 115.15625 L 48.03125 113.96875 L 48.683594 112.785156 L 49.988281 110.449219 L 50.636719 109.285156 L 51.933594 106.988281 L 52.582031 105.851563 L 53.226563 104.722656 L 53.871094 103.601563 L 54.515625 102.488281 L 55.15625 101.378906 L 55.800781 100.285156 L 56.4375 99.191406 L 57.078125 98.109375 L 57.71875 97.039063 L 58.355469 95.972656 L 58.992188 94.917969 L 59.625 93.875 L 60.261719 92.832031 L 60.894531 91.808594 L 61.519531 90.785156 L 62.152344 89.777344 L 62.78125 88.777344 L 63.40625 87.785156 L 64.03125 86.804688 L 64.660156 85.835938 L 65.28125 84.875 L 65.902344 83.925781 L 66.527344 82.980469 L 67.144531 82.054688 L 67.761719 81.132813 L 68.378906 80.222656 L 68.992188 79.324219 L 69.605469 78.429688 L 70.21875 77.554688 L 70.832031 76.6875 L 71.4375 75.828125 L 72.046875 74.984375 L 72.652344 74.148438 L 73.257813 73.328125 L 73.859375 72.515625 L 74.460938 71.714844 L 75.0625 70.929688 L 75.660156 70.148438 L 76.253906 69.382813 L 76.847656 68.628906 L 77.441406 67.886719 L 78.03125 67.160156 L 78.625 66.4375 L 79.210938 65.734375 L 79.796875 65.039063 L 80.382813 64.355469 L 208.046875 174.703125 Z M 16.707031 174.703125 "/>
<g style="fill:rgb(0%,0%,0%);fill-opacity:1;">
  <use xlink:href="#glyph0-1" x="76.666" y="139.841"/>
</g>
<g clip-path="url(#clip1)" clip-rule="nonzero">
<path style="fill:none;stroke-width:1.59404;stroke-linecap:butt;stroke-linejoin:miter;stroke:rgb(100%,0%,0%);stroke-opacity:1;stroke-miterlimit:10;" d="M 0.00003125 0.001875 L 2.023469 4.040938 L 4.039094 8.083906 L 6.062531 12.11125 L 8.082062 16.134688 L 10.097687 20.134688 L 12.113312 24.119063 L 14.125031 28.076094 L 16.132844 32.005781 L 18.13675 35.904219 L 20.13675 39.7675 L 22.128937 43.595625 L 24.121125 47.369063 L 26.101594 51.099531 L 28.078156 54.779219 L 30.046906 58.404219 L 32.007844 61.970625 L 33.960969 65.474531 L 35.906281 68.912031 L 37.843781 72.279219 L 39.769562 75.576094 L 41.687531 78.794844 L 43.593781 81.935469 L 45.488312 84.994063 L 47.371125 87.962813 L 49.242219 90.849531 L 51.097687 93.6425 L 52.94925 96.345625 L 54.781281 98.943281 L 56.601594 101.447188 L 58.402375 103.845625 L 60.195344 106.1425 L 61.972687 108.33 L 63.734406 110.415938 L 65.476594 112.380781 L 67.203156 114.23625 L 68.910188 115.978438 L 70.6055 117.603438 L 72.277375 119.115156 L 73.937531 120.497969 L 75.57425 121.763594 L 77.195344 122.904219 L 78.793 123.927656 L 80.378938 124.822188 L 81.937531 125.595625 L 83.476594 126.23625 L 84.996125 126.751875 L 86.492219 127.138594 L 87.964875 127.404219 L 89.418 127.540938 L 90.847688 127.544844 L 92.257844 127.419844 L 93.640656 127.165938 L 95.003938 126.787031 L 96.347688 126.283125 L 97.656281 125.650313 L 98.945344 124.888594 L 100.207063 124.001875 L 101.445344 122.994063 L 102.656281 121.86125 L 103.843781 120.607344 L 105.007844 119.224531 L 106.140656 117.728438 L 107.250031 116.115156 L 108.332063 114.380781 L 109.38675 112.537031 L 110.414094 110.576094 L 111.414094 108.501875 L 112.378938 106.318281 L 113.32425 104.033125 L 114.238313 101.6425 L 115.121125 99.150313 L 115.976594 96.552656 L 116.804719 93.86125 L 117.6055 91.076094 L 118.375031 88.197188 L 119.113313 85.232344 L 119.82425 82.185469 L 120.500031 79.04875 L 121.148469 75.833906 L 121.76175 72.544844 L 122.351594 69.185469 L 122.906281 65.755781 L 123.433625 62.251875 L 123.929719 58.689375 L 124.390656 55.068281 L 124.82425 51.396406 L 125.226594 47.669844 L 125.593781 43.896406 L 125.929719 40.076094 L 126.234406 36.216719 L 126.507844 32.322188 L 126.750031 28.388594 L 126.960969 24.435469 L 127.140656 20.455 L 127.289094 16.455 L 127.402375 12.435469 L 127.488313 8.404219 L 127.543 4.365156 L 127.558625 0.322188 " transform="matrix(1,0,0,-1,16.707,174.705)"/>
</g>
<g style="fill:rgb(100%,0%,0%);fill-opacity:1;">
  <use xlink:href="#glyph0-2" x="102.975" y="37.249"/>
</g>
<g clip-path="url(#clip2)" clip-rule="nonzero">
<path style="fill:none;stroke-width:0.79701;stroke-linecap:butt;stroke-linejoin:miter;stroke:rgb(0%,0%,100%);stroke-opacity:1;stroke-miterlimit:10;" d="M 51.023469 121.513594 L 57.398469 115.994063 L 63.777375 110.470625 L 70.152375 104.947188 L 76.527375 99.427656 L 82.906281 93.904219 L 89.281281 88.384688 L 95.660188 82.86125 L 102.035188 77.337813 L 108.410188 71.818281 L 114.789094 66.294844 L 121.164094 60.771406 L 127.543 55.251875 L 133.918 49.728438 L 140.293 44.208906 L 146.671906 38.685469 L 153.046906 33.162031 L 159.421906 27.6425 L 165.800813 22.119063 L 172.175813 16.595625 L 178.554719 11.076094 L 191.304719 0.0292188 L 197.683625 -5.490312 L 204.058625 -11.01375 " transform="matrix(1,0,0,-1,16.707,174.705)"/>
</g>
<g style="fill:rgb(0%,0%,100%);fill-opacity:1;">
  <use xlink:href="#glyph1-0" x="147.785" y="113.785"/>
  <use xlink:href="#glyph1-1" x="155.255468" y="113.785"/>
  <use xlink:href="#glyph1-2" x="160.235779" y="113.785"/>
  <use xlink:href="#glyph1-3" x="164.136544" y="113.785"/>
  <use xlink:href="#glyph1-4" x="172.437063" y="113.785"/>
  <use xlink:href="#glyph1-5" x="177.417375" y="113.785"/>
</g>
<path style=" stroke:none;fill-rule:nonzero;fill:rgb(0%,0%,0%);fill-opacity:1;" d="M 82.601563 64.238281 C 82.601563 63.070313 81.65625 62.125 80.488281 62.125 C 79.320313 62.125 78.375 63.070313 78.375 64.238281 C 78.375 65.40625 79.320313 66.351563 80.488281 66.351563 C 81.65625 66.351563 82.601563 65.40625 82.601563 64.238281 Z M 82.601563 64.238281 "/>
<g style="fill:rgb(0%,0%,0%);fill-opacity:1;">
  <use xlink:href="#glyph0-3" x="31.93" y="54.245"/>
</g>
<g style="fill:rgb(0%,0%,0%);fill-opacity:1;">
  <use xlink:href="#glyph2-1" x="41.371" y="43.186"/>
</g>
<g style="fill:rgb(0%,0%,0%);fill-opacity:1;">
  <use xlink:href="#glyph3-1" x="48.516" y="50.322"/>
</g>
<path style="fill:none;stroke-width:0.398;stroke-linecap:butt;stroke-linejoin:miter;stroke:rgb(0%,0%,0%);stroke-opacity:1;stroke-miterlimit:10;" d="M -0.000375 0.00009375 L 3.972281 0.00009375 " transform="matrix(1,0,0,-1,48.516,51.754)"/>
<g style="fill:rgb(0%,0%,0%);fill-opacity:1;">
  <use xlink:href="#glyph3-2" x="48.516" y="57.68"/>
</g>
<g style="fill:rgb(0%,0%,0%);fill-opacity:1;">
  <use xlink:href="#glyph0-4" x="53.683" y="54.245"/>
</g>
<g style="fill:rgb(0%,0%,0%);fill-opacity:1;">
  <use xlink:href="#glyph4-1" x="59.306" y="44.521"/>
</g>
<path style="fill:none;stroke-width:0.339;stroke-linecap:butt;stroke-linejoin:miter;stroke:rgb(0%,0%,0%);stroke-opacity:1;stroke-miterlimit:10;" d="M 0.0005625 0.0004375 L 3.969313 0.0004375 " transform="matrix(1,0,0,-1,65.851,44.352)"/>
<g style="fill:rgb(0%,0%,0%);fill-opacity:1;">
  <use xlink:href="#glyph3-3" x="65.851" y="50.298"/>
</g>
<path style="fill:none;stroke-width:0.398;stroke-linecap:butt;stroke-linejoin:miter;stroke:rgb(0%,0%,0%);stroke-opacity:1;stroke-miterlimit:10;" d="M -0.0013125 0.00009375 L 10.514313 0.00009375 " transform="matrix(1,0,0,-1,59.306,51.754)"/>
<g style="fill:rgb(0%,0%,0%);fill-opacity:1;">
  <use xlink:href="#glyph3-2" x="62.579" y="57.68"/>
</g>
<g style="fill:rgb(0%,0%,0%);fill-opacity:1;">
  <use xlink:href="#glyph2-2" x="71.018" y="43.186"/>
</g>
<path style=" stroke:none;fill-rule:nonzero;fill:rgb(0%,0%,0%);fill-opacity:1;" d="M 210.160156 174.703125 C 210.160156 173.539063 209.214844 172.589844 208.046875 172.589844 C 206.878906 172.589844 205.933594 173.539063 205.933594 174.703125 C 205.933594 175.871094 206.878906 176.820313 208.046875 176.820313 C 209.214844 176.820313 210.160156 175.871094 210.160156 174.703125 Z M 210.160156 174.703125 "/>
<g style="fill:rgb(0%,0%,0%);fill-opacity:1;">
  <use xlink:href="#glyph3-3" x="206.06" y="182.719"/>
</g>
<path style="fill:none;stroke-width:0.398;stroke-linecap:butt;stroke-linejoin:miter;stroke:rgb(0%,0%,0%);stroke-opacity:1;stroke-miterlimit:10;" d="M -0.00140625 -0.00134375 L 3.97125 -0.00134375 " transform="matrix(1,0,0,-1,206.06,184.151)"/>
<g style="fill:rgb(0%,0%,0%);fill-opacity:1;">
  <use xlink:href="#glyph3-2" x="206.06" y="190.077"/>
</g>
<path style=" stroke:none;fill-rule:nonzero;fill:rgb(0%,0%,0%);fill-opacity:1;" d="M 146.382813 174.703125 C 146.382813 173.539063 145.433594 172.589844 144.269531 172.589844 C 143.101563 172.589844 142.152344 173.539063 142.152344 174.703125 C 142.152344 175.871094 143.101563 176.820313 144.269531 176.820313 C 145.433594 176.820313 146.382813 175.871094 146.382813 174.703125 Z M 146.382813 174.703125 "/>
<g style="fill:rgb(0%,0%,0%);fill-opacity:1;">
  <use xlink:href="#glyph5-1" x="141.775" y="184.645"/>
</g>
<path style="fill:none;stroke-width:0.79701;stroke-linecap:butt;stroke-linejoin:miter;stroke:rgb(0%,0%,0%);stroke-opacity:1;stroke-miterlimit:10;" d="M -12.757781 0.001875 L 227.019563 0.001875 " transform="matrix(1,0,0,-1,16.707,174.705)"/>
<path style=" stroke:none;fill-rule:nonzero;fill:rgb(0%,0%,0%);fill-opacity:1;" d="M 246.316406 174.703125 L 242.171875 172.632813 L 243.726563 174.703125 L 242.171875 176.777344 "/>
<g style="fill:rgb(0%,0%,0%);fill-opacity:1;">
  <use xlink:href="#glyph0-5" x="250.032" y="176.85"/>
</g>
<path style="fill:none;stroke-width:0.79701;stroke-linecap:butt;stroke-linejoin:miter;stroke:rgb(0%,0%,0%);stroke-opacity:1;stroke-miterlimit:10;" d="M 0.00003125 -12.755937 L 0.00003125 156.86125 " transform="matrix(1,0,0,-1,16.707,174.705)"/>
<path style=" stroke:none;fill-rule:nonzero;fill:rgb(0%,0%,0%);fill-opacity:1;" d="M 16.707031 15.253906 L 14.636719 19.398438 L 16.707031 17.84375 L 18.777344 19.398438 "/>
<g style="fill:rgb(0%,0%,0%);fill-opacity:1;">
  <use xlink:href="#glyph0-6" x="14.086" y="9.601"/>
</g>
<g style="fill:rgb(0%,0%,0%);fill-opacity:1;">
  <use xlink:href="#glyph0-7" x="5.312" y="185.032"/>
</g>
</g>
</svg>
