<?xml version="1.0" encoding="UTF-8"?>
<svg xmlns="http://www.w3.org/2000/svg" xmlns:xlink="http://www.w3.org/1999/xlink" width="229.714pt" height="208.987pt" viewBox="0 0 229.714 208.987" version="1.1">
<defs>
<g>
<symbol overflow="visible" id="glyph0-0">
<path style="stroke:none;" d=""/>
</symbol>
<symbol overflow="visible" id="glyph0-1">
<path style="stroke:none;" d="M 3.328125 -3.015625 C 3.390625 -3.265625 3.625 -4.1875 4.3125 -4.1875 C 4.359375 -4.1875 4.609375 -4.1875 4.8125 -4.0625 C 4.53125 -4 4.34375 -3.765625 4.34375 -3.515625 C 4.34375 -3.359375 4.453125 -3.171875 4.71875 -3.171875 C 4.9375 -3.171875 5.25 -3.34375 5.25 -3.75 C 5.25 -4.265625 4.671875 -4.40625 4.328125 -4.40625 C 3.75 -4.40625 3.40625 -3.875 3.28125 -3.65625 C 3.03125 -4.3125 2.5 -4.40625 2.203125 -4.40625 C 1.171875 -4.40625 0.59375 -3.125 0.59375 -2.875 C 0.59375 -2.765625 0.703125 -2.765625 0.71875 -2.765625 C 0.796875 -2.765625 0.828125 -2.796875 0.84375 -2.875 C 1.1875 -3.9375 1.84375 -4.1875 2.1875 -4.1875 C 2.375 -4.1875 2.71875 -4.09375 2.71875 -3.515625 C 2.71875 -3.203125 2.546875 -2.546875 2.1875 -1.140625 C 2.03125 -0.53125 1.671875 -0.109375 1.234375 -0.109375 C 1.171875 -0.109375 0.953125 -0.109375 0.734375 -0.234375 C 0.984375 -0.296875 1.203125 -0.5 1.203125 -0.78125 C 1.203125 -1.046875 0.984375 -1.125 0.84375 -1.125 C 0.53125 -1.125 0.296875 -0.875 0.296875 -0.546875 C 0.296875 -0.09375 0.78125 0.109375 1.21875 0.109375 C 1.890625 0.109375 2.25 -0.59375 2.265625 -0.640625 C 2.390625 -0.28125 2.75 0.109375 3.34375 0.109375 C 4.375 0.109375 4.9375 -1.171875 4.9375 -1.421875 C 4.9375 -1.53125 4.859375 -1.53125 4.828125 -1.53125 C 4.734375 -1.53125 4.71875 -1.484375 4.6875 -1.421875 C 4.359375 -0.34375 3.6875 -0.109375 3.375 -0.109375 C 2.984375 -0.109375 2.828125 -0.421875 2.828125 -0.765625 C 2.828125 -0.984375 2.875 -1.203125 2.984375 -1.640625 Z M 3.328125 -3.015625 "/>
</symbol>
<symbol overflow="visible" id="glyph0-2">
<path style="stroke:none;" d="M 4.84375 -3.796875 C 4.890625 -3.9375 4.890625 -3.953125 4.890625 -4.03125 C 4.890625 -4.203125 4.75 -4.296875 4.59375 -4.296875 C 4.5 -4.296875 4.34375 -4.234375 4.25 -4.09375 C 4.234375 -4.03125 4.140625 -3.734375 4.109375 -3.546875 C 4.03125 -3.296875 3.96875 -3.015625 3.90625 -2.75 L 3.453125 -0.953125 C 3.421875 -0.8125 2.984375 -0.109375 2.328125 -0.109375 C 1.828125 -0.109375 1.71875 -0.546875 1.71875 -0.921875 C 1.71875 -1.375 1.890625 -2 2.21875 -2.875 C 2.375 -3.28125 2.421875 -3.390625 2.421875 -3.59375 C 2.421875 -4.03125 2.109375 -4.40625 1.609375 -4.40625 C 0.65625 -4.40625 0.296875 -2.953125 0.296875 -2.875 C 0.296875 -2.765625 0.390625 -2.765625 0.40625 -2.765625 C 0.515625 -2.765625 0.515625 -2.796875 0.5625 -2.953125 C 0.84375 -3.890625 1.234375 -4.1875 1.578125 -4.1875 C 1.65625 -4.1875 1.828125 -4.1875 1.828125 -3.875 C 1.828125 -3.625 1.71875 -3.359375 1.65625 -3.171875 C 1.25 -2.109375 1.078125 -1.546875 1.078125 -1.078125 C 1.078125 -0.1875 1.703125 0.109375 2.296875 0.109375 C 2.6875 0.109375 3.015625 -0.0625 3.296875 -0.34375 C 3.171875 0.171875 3.046875 0.671875 2.65625 1.203125 C 2.390625 1.53125 2.015625 1.828125 1.5625 1.828125 C 1.421875 1.828125 0.96875 1.796875 0.796875 1.40625 C 0.953125 1.40625 1.09375 1.40625 1.21875 1.28125 C 1.328125 1.203125 1.421875 1.0625 1.421875 0.875 C 1.421875 0.5625 1.15625 0.53125 1.0625 0.53125 C 0.828125 0.53125 0.5 0.6875 0.5 1.171875 C 0.5 1.671875 0.9375 2.046875 1.5625 2.046875 C 2.578125 2.046875 3.609375 1.140625 3.890625 0.015625 Z M 4.84375 -3.796875 "/>
</symbol>
<symbol overflow="visible" id="glyph2-0">
<path style="stroke:none;" d=""/>
</symbol>
<symbol overflow="visible" id="glyph2-1">
<path style="stroke:none;" d="M 4.578125 -3.1875 C 4.578125 -3.984375 4.53125 -4.78125 4.1875 -5.515625 C 3.734375 -6.484375 2.90625 -6.640625 2.5 -6.640625 C 1.890625 -6.640625 1.171875 -6.375 0.75 -5.453125 C 0.4375 -4.765625 0.390625 -3.984375 0.390625 -3.1875 C 0.390625 -2.4375 0.421875 -1.546875 0.84375 -0.78125 C 1.265625 0.015625 2 0.21875 2.484375 0.21875 C 3.015625 0.21875 3.78125 0.015625 4.21875 -0.9375 C 4.53125 -1.625 4.578125 -2.40625 4.578125 -3.1875 Z M 2.484375 0 C 2.09375 0 1.5 -0.25 1.328125 -1.203125 C 1.21875 -1.796875 1.21875 -2.71875 1.21875 -3.3125 C 1.21875 -3.953125 1.21875 -4.609375 1.296875 -5.140625 C 1.484375 -6.328125 2.234375 -6.421875 2.484375 -6.421875 C 2.8125 -6.421875 3.46875 -6.234375 3.65625 -5.25 C 3.765625 -4.6875 3.765625 -3.9375 3.765625 -3.3125 C 3.765625 -2.5625 3.765625 -1.890625 3.65625 -1.25 C 3.5 -0.296875 2.9375 0 2.484375 0 Z M 2.484375 0 "/>
</symbol>
<symbol overflow="visible" id="glyph1-0">
<g transform="matrix(1,0,0,1,0,-7)">
<rect x="0" y="0" width="1" height="1"/>
<rect x="1" y="0" width="1" height="1"/>
<rect x="2" y="0" width="1" height="1"/>
<rect x="3" y="0" width="1" height="1"/>
<rect x="1" y="1" width="1" height="1"/>
<rect x="1" y="2" width="1" height="1"/>
<rect x="1" y="3" width="1" height="1"/>
<rect x="1" y="4" width="1" height="1"/>
<rect x="1" y="5" width="1" height="1"/>
<rect x="5" y="5" width="1" height="1"/>
<rect x="1" y="6" width="1" height="1"/>
<rect x="5" y="6" width="1" height="1"/>
</g>
</symbol>
<symbol overflow="visible" id="glyph1-1">
<g transform="matrix(1,0,0,1,0,-5)">
<rect x="2" y="0" width="1" height="1"/>
<rect x="0" y="2" width="1" height="1"/>
<rect x="4" y="2" width="1" height="1"/>
<rect x="0" y="3" width="1" height="1"/>
<rect x="4" y="3" width="1" height="1"/>
<rect x="1" y="4" width="1" height="1"/>
<rect x="3" y="4" width="1" height="1"/>
</g>
</symbol>
<symbol overflow="visible" id="glyph1-2">
<g transform="matrix(1,0,0,1,0,-5)">
<rect x="2" y="0" width="1" height="1"/>
<rect x="3" y="1" width="1" height="1"/>
<rect x="0" y="2" width="1" height="1"/>
<rect x="0" y="3" width="1" height="1"/>
<rect x="1" y="4" width="1" height="1"/>
<rect x="3" y="4" width="1" height="1"/>
</g>
</symbol>
<symbol overflow="visible" id="glyph1-3">
<g transform="matrix(1,0,0,1,0,-5)">
<rect x="2" y="0" width="1" height="1"/>
<rect x="1" y="1" width="1" height="1"/>
<rect x="3" y="1" width="1" height="1"/>
<rect x="2" y="2" width="1" height="1"/>
<rect x="3" y="2" width="1" height="1"/>
<rect x="0" y="3" width="1" height="1"/>
<rect x="3" y="3" width="1" height="1"/>
<rect x="0" y="4" width="1" height="1"/>
<rect x="3" y="4" width="1" height="1"/>
</g>
</symbol>
<symbol overflow="visible" id="glyph1-4">
<g transform="matrix(1,0,0,1,0,-7)">
<rect x="0" y="0" width="1" height="1"/>
<rect x="1" y="0" width="1" height="1"/>
<rect x="1" y="1" width="1" height="1"/>
<rect x="1" y="2" width="1" height="1"/>
<rect x="1" y="3" width="1" height="1"/>
<rect x="1" y="4" width="1" height="1"/>
<rect x="1" y="5" width="1" height="1"/>
<rect x="1" y="6" width="1" height="1"/>
</g>
</symbol>
<symbol overflow="visible" id="glyph1-5">
<g transform="matrix(1,0,0,1,0,-7)">
<rect x="0" y="0" width="1" height="1"/>
<rect x="1" y="0" width="1" height="1"/>
<rect x="7" y="0" width="1" height="1"/>
<rect x="8" y="0" width="1" height="1"/>
<rect x="1" y="1" width="1" height="1"/>
<rect x="2" y="1" width="1" height="1"/>
<rect x="7" y="1" width="1" height="1"/>
<rect x="1" y="2" width="1" height="1"/>
<rect x="2" y="2" width="1" height="1"/>
<rect x="7" y="2" width="1" height="1"/>
<rect x="1" y="3" width="1" height="1"/>
<rect x="3" y="3" width="1" height="1"/>
<rect x="5" y="3" width="1" height="1"/>
<rect x="7" y="3" width="1" height="1"/>
<rect x="1" y="4" width="1" height="1"/>
<rect x="3" y="4" width="1" height="1"/>
<rect x="7" y="4" width="1" height="1"/>
<rect x="1" y="5" width="1" height="1"/>
<rect x="3" y="5" width="1" height="1"/>
<rect x="7" y="5" width="1" height="1"/>
<rect x="1" y="6" width="1" height="1"/>
<rect x="4" y="6" width="1" height="1"/>
<rect x="7" y="6" width="1" height="1"/>
</g>
</symbol>
<symbol overflow="visible" id="glyph1-6">
<g transform="matrix(1,0,0,1,0,-5)">
<rect x="1" y="1" width="1" height="1"/>
<rect x="3" y="1" width="1" height="1"/>
<rect x="2" y="2" width="1" height="1"/>
<rect x="1" y="4" width="1" height="1"/>
<rect x="3" y="4" width="1" height="1"/>
</g>
</symbol>
<symbol overflow="visible" id="glyph1-7">
<g transform="matrix(1,0,0,1,0,-7)">
<rect x="1" y="0" width="1" height="1"/>
<rect x="1" y="3" width="1" height="1"/>
<rect x="1" y="4" width="1" height="1"/>
<rect x="1" y="5" width="1" height="1"/>
<rect x="1" y="6" width="1" height="1"/>
</g>
</symbol>
<symbol overflow="visible" id="glyph1-8">
<g transform="matrix(1,0,0,1,0,-5)">
<rect x="1" y="1" width="1" height="1"/>
<rect x="1" y="2" width="1" height="1"/>
<rect x="1" y="3" width="1" height="1"/>
<rect x="1" y="4" width="1" height="1"/>
</g>
</symbol>
</g>
</defs>
<g id="surface1">
<path style="fill:none;stroke-width:0.79701;stroke-linecap:butt;stroke-linejoin:miter;stroke:rgb(0%,0%,0%);stroke-opacity:1;stroke-miterlimit:10;" d="M -106.299375 -0.00159375 L 105.505313 -0.00159375 " transform="matrix(1,0,0,-1,108.69,121.557)"/>
<path style="fill:none;stroke-width:0.79701;stroke-linecap:round;stroke-linejoin:round;stroke:rgb(0%,0%,0%);stroke-opacity:1;stroke-miterlimit:10;" d="M -2.549041 3.111688 C -2.084198 1.2445 -1.045135 0.361688 0.00174 -0.00159375 C -1.045135 -0.364875 -2.084198 -1.243781 -2.549041 -3.110969 " transform="matrix(1,0,0,-1,214.59201,121.557)"/>
<g style="fill:rgb(0%,0%,0%);fill-opacity:1;">
  <use xlink:href="#glyph0-1" x="218.708" y="123.701"/>
</g>
<path style="fill:none;stroke-width:0.79701;stroke-linecap:butt;stroke-linejoin:miter;stroke:rgb(0%,0%,0%);stroke-opacity:1;stroke-miterlimit:10;" d="M 0.00140625 -85.040656 L 0.00140625 105.502313 " transform="matrix(1,0,0,-1,108.69,121.557)"/>
<path style="fill:none;stroke-width:0.79701;stroke-linecap:round;stroke-linejoin:round;stroke:rgb(0%,0%,0%);stroke-opacity:1;stroke-miterlimit:10;" d="M -2.552041 3.111875 C -2.083291 1.244687 -1.044229 0.361875 -0.00126 -0.00140625 C -1.044229 -0.364688 -2.083291 -1.243594 -2.552041 -3.110781 " transform="matrix(0,-1,-1,0,108.69,15.65499)"/>
<g style="fill:rgb(0%,0%,0%);fill-opacity:1;">
  <use xlink:href="#glyph0-2" x="106.069" y="9.602"/>
</g>
<path style="fill:none;stroke-width:1.59404;stroke-linecap:butt;stroke-linejoin:miter;stroke:rgb(0%,0%,100%);stroke-opacity:1;stroke-miterlimit:10;" d="M -89.291562 -37.771125 L -87.490781 -32.3805 L -85.686094 -27.271125 L -83.881406 -22.439094 L -82.076719 -17.8805 L -80.275937 -13.587531 L -78.47125 -9.552375 L -76.666562 -5.775031 L -74.861875 -2.243781 L -73.061094 1.045281 L -71.256406 4.096063 L -69.451719 6.916375 L -67.647031 9.514031 L -65.84625 11.892938 L -64.041562 14.057 L -62.236875 16.010125 L -60.432187 17.767938 L -58.631406 19.326531 L -56.826719 20.693719 L -55.022031 21.877313 L -53.217344 22.885125 L -51.416562 23.721063 L -49.611875 24.389031 L -47.807187 24.896844 L -46.0025 25.248406 L -44.201719 25.451531 L -42.397031 25.510125 L -40.592344 25.435906 L -38.787656 25.224969 L -36.986875 24.892938 L -35.182187 24.439813 L -33.3775 23.8695 L -31.576719 23.193719 L -29.772031 22.416375 L -27.967344 21.541375 L -26.162656 20.576531 L -24.361875 19.52575 L -22.557187 18.396844 L -20.7525 17.193719 L -18.947812 15.924188 L -17.147031 14.596063 L -15.342344 13.209344 L -13.537656 11.771844 L -11.732969 10.291375 L -9.932187 8.77575 L -8.1275 7.224969 L -6.322812 5.646844 L -4.518125 4.053094 L -2.717344 2.439813 L -0.912656 0.822625 L 0.892031 -0.802375 L 2.696719 -2.423469 L 4.4975 -4.032844 L 6.302188 -5.6305 L 8.106875 -7.208625 L 9.911563 -8.759406 L 11.712344 -10.275031 L 13.517031 -11.7555 L 15.321719 -13.193 L 17.126406 -14.579719 L 18.927188 -15.91175 L 20.731875 -17.181281 L 22.536563 -18.384406 L 24.34125 -19.513312 L 26.142031 -20.564094 L 27.946719 -21.528937 L 29.751406 -22.403937 L 31.552188 -23.185187 L 33.356875 -23.864875 L 35.161563 -24.431281 L 36.96625 -24.888312 L 38.767031 -25.22425 L 40.571719 -25.431281 L 42.376406 -25.513312 L 44.181094 -25.454719 L 45.981875 -25.251594 L 47.786563 -24.900031 L 49.59125 -24.396125 L 51.395938 -23.728156 L 53.196719 -22.896125 L 55.001406 -21.892219 L 56.806094 -20.708625 L 58.610781 -19.341437 L 60.411563 -17.78675 L 62.21625 -16.032844 L 64.020938 -14.079719 L 65.825625 -11.915656 L 67.626406 -9.544562 L 69.431094 -6.950812 L 71.235781 -4.1305 L 73.040469 -1.079719 L 74.84125 2.201531 L 76.645938 5.732781 L 78.450625 9.510125 L 80.255313 13.537469 L 82.056094 17.830438 L 83.860781 22.385125 L 85.665469 27.21325 L 87.470156 32.318719 L 89.270938 37.705438 " transform="matrix(1,0,0,-1,108.69,121.557)"/>
<path style="fill-rule:nonzero;fill:rgb(0%,0%,0%);fill-opacity:1;stroke-width:0.3985;stroke-linecap:butt;stroke-linejoin:miter;stroke:rgb(0%,0%,0%);stroke-opacity:1;stroke-miterlimit:10;" d="M -40.279844 25.514031 C -40.279844 26.752313 -41.28375 27.752313 -42.522031 27.752313 C -43.756406 27.752313 -44.760312 26.752313 -44.760312 25.514031 C -44.760312 24.27575 -43.756406 23.271844 -42.522031 23.271844 C -41.28375 23.271844 -40.279844 24.27575 -40.279844 25.514031 Z M -40.279844 25.514031 " transform="matrix(1,0,0,-1,108.69,121.557)"/>
<g style="fill:rgb(0%,0%,0%);fill-opacity:1;">
  <use xlink:href="#glyph1-0" x="16.309" y="92.526"/>
  <use xlink:href="#glyph1-1" x="22.53439" y="92.526"/>
</g>
<g style="fill:rgb(0%,0%,0%);fill-opacity:1;">
  <use xlink:href="#glyph1-2" x="27.793654" y="92.526"/>
  <use xlink:href="#glyph1-3" x="32.220998" y="92.526"/>
  <use xlink:href="#glyph1-4" x="37.201309" y="92.526"/>
</g>
<g style="fill:rgb(0%,0%,0%);fill-opacity:1;">
  <use xlink:href="#glyph1-5" x="43.286095" y="92.526"/>
  <use xlink:href="#glyph1-3" x="52.416666" y="92.526"/>
  <use xlink:href="#glyph1-6" x="57.396978" y="92.526"/>
</g>
<path style="fill-rule:nonzero;fill:rgb(0%,0%,0%);fill-opacity:1;stroke-width:0.3985;stroke-linecap:butt;stroke-linejoin:miter;stroke:rgb(0%,0%,0%);stroke-opacity:1;stroke-miterlimit:10;" d="M 44.763125 -25.513312 C 44.763125 -24.275031 43.759219 -23.271125 42.520938 -23.271125 C 41.282656 -23.271125 40.27875 -24.275031 40.27875 -25.513312 C 40.27875 -26.751594 41.282656 -27.7555 42.520938 -27.7555 C 43.759219 -27.7555 44.763125 -26.751594 44.763125 -25.513312 Z M 44.763125 -25.513312 " transform="matrix(1,0,0,-1,108.69,121.557)"/>
<g style="fill:rgb(0%,0%,0%);fill-opacity:1;">
  <use xlink:href="#glyph1-0" x="154.729" y="157.449"/>
  <use xlink:href="#glyph1-1" x="160.95439" y="157.449"/>
</g>
<g style="fill:rgb(0%,0%,0%);fill-opacity:1;">
  <use xlink:href="#glyph1-2" x="166.213654" y="157.449"/>
  <use xlink:href="#glyph1-3" x="170.640998" y="157.449"/>
  <use xlink:href="#glyph1-4" x="175.621309" y="157.449"/>
</g>
<g style="fill:rgb(0%,0%,0%);fill-opacity:1;">
  <use xlink:href="#glyph1-5" x="181.706095" y="157.449"/>
  <use xlink:href="#glyph1-7" x="190.836666" y="157.449"/>
  <use xlink:href="#glyph1-8" x="193.603906" y="157.449"/>
</g>
<g style="fill:rgb(0%,0%,0%);fill-opacity:1;">
  <use xlink:href="#glyph2-1" x="100.19" y="131.496"/>
</g>
</g>
</svg>
