<?xml version="1.0" encoding="UTF-8"?>
<svg xmlns="http://www.w3.org/2000/svg" xmlns:xlink="http://www.w3.org/1999/xlink" width="373.436pt" height="336.331pt" viewBox="0 0 373.436 336.331" version="1.1">
<defs>
<g>
<symbol overflow="visible" id="glyph0-0">
<path style="stroke:none;" d=""/>
</symbol>
<symbol overflow="visible" id="glyph0-1">
<path style="stroke:none;" d="M 2.046875 -3.984375 L 2.984375 -3.984375 C 3.1875 -3.984375 3.296875 -3.984375 3.296875 -4.1875 C 3.296875 -4.296875 3.1875 -4.296875 3.015625 -4.296875 L 2.140625 -4.296875 C 2.5 -5.71875 2.546875 -5.90625 2.546875 -5.96875 C 2.546875 -6.140625 2.421875 -6.234375 2.25 -6.234375 C 2.21875 -6.234375 1.9375 -6.234375 1.859375 -5.875 L 1.46875 -4.296875 L 0.53125 -4.296875 C 0.328125 -4.296875 0.234375 -4.296875 0.234375 -4.109375 C 0.234375 -3.984375 0.3125 -3.984375 0.515625 -3.984375 L 1.390625 -3.984375 C 0.671875 -1.15625 0.625 -0.984375 0.625 -0.8125 C 0.625 -0.265625 1 0.109375 1.546875 0.109375 C 2.5625 0.109375 3.125 -1.34375 3.125 -1.421875 C 3.125 -1.53125 3.046875 -1.53125 3.015625 -1.53125 C 2.921875 -1.53125 2.90625 -1.5 2.859375 -1.390625 C 2.4375 -0.34375 1.90625 -0.109375 1.5625 -0.109375 C 1.359375 -0.109375 1.25 -0.234375 1.25 -0.5625 C 1.25 -0.8125 1.28125 -0.875 1.3125 -1.046875 Z M 2.046875 -3.984375 "/>
</symbol>
<symbol overflow="visible" id="glyph0-2">
<path style="stroke:none;" d="M 0.453125 1.21875 C 0.375 1.5625 0.34375 1.625 -0.09375 1.625 C -0.203125 1.625 -0.3125 1.625 -0.3125 1.8125 C -0.3125 1.890625 -0.265625 1.9375 -0.1875 1.9375 C 0.078125 1.9375 0.375 1.90625 0.640625 1.90625 C 0.984375 1.90625 1.3125 1.9375 1.640625 1.9375 C 1.6875 1.9375 1.8125 1.9375 1.8125 1.734375 C 1.8125 1.625 1.71875 1.625 1.578125 1.625 C 1.078125 1.625 1.078125 1.5625 1.078125 1.46875 C 1.078125 1.34375 1.5 -0.28125 1.5625 -0.53125 C 1.6875 -0.234375 1.96875 0.109375 2.484375 0.109375 C 3.640625 0.109375 4.890625 -1.34375 4.890625 -2.8125 C 4.890625 -3.75 4.3125 -4.40625 3.5625 -4.40625 C 3.0625 -4.40625 2.578125 -4.046875 2.25 -3.65625 C 2.15625 -4.203125 1.71875 -4.40625 1.359375 -4.40625 C 0.890625 -4.40625 0.703125 -4.015625 0.625 -3.84375 C 0.4375 -3.5 0.3125 -2.90625 0.3125 -2.875 C 0.3125 -2.765625 0.40625 -2.765625 0.421875 -2.765625 C 0.53125 -2.765625 0.53125 -2.78125 0.59375 -3 C 0.765625 -3.703125 0.96875 -4.1875 1.328125 -4.1875 C 1.5 -4.1875 1.640625 -4.109375 1.640625 -3.734375 C 1.640625 -3.5 1.609375 -3.390625 1.5625 -3.21875 Z M 2.203125 -3.109375 C 2.265625 -3.375 2.546875 -3.65625 2.71875 -3.8125 C 3.078125 -4.109375 3.359375 -4.1875 3.53125 -4.1875 C 3.921875 -4.1875 4.171875 -3.84375 4.171875 -3.25 C 4.171875 -2.65625 3.84375 -1.515625 3.65625 -1.140625 C 3.3125 -0.4375 2.84375 -0.109375 2.46875 -0.109375 C 1.8125 -0.109375 1.6875 -0.9375 1.6875 -1 C 1.6875 -1.015625 1.6875 -1.03125 1.71875 -1.15625 Z M 2.203125 -3.109375 "/>
</symbol>
<symbol overflow="visible" id="glyph2-0">
<path style="stroke:none;" d=""/>
</symbol>
<symbol overflow="visible" id="glyph2-1">
<path style="stroke:none;" d="M 2.9375 -1.640625 L 2.9375 -0.78125 C 2.9375 -0.421875 2.90625 -0.3125 2.171875 -0.3125 L 1.96875 -0.3125 L 1.96875 0 C 2.375 -0.03125 2.890625 -0.03125 3.3125 -0.03125 C 3.734375 -0.03125 4.25 -0.03125 4.671875 0 L 4.671875 -0.3125 L 4.453125 -0.3125 C 3.71875 -0.3125 3.703125 -0.421875 3.703125 -0.78125 L 3.703125 -1.640625 L 4.6875 -1.640625 L 4.6875 -1.953125 L 3.703125 -1.953125 L 3.703125 -6.484375 C 3.703125 -6.6875 3.703125 -6.75 3.53125 -6.75 C 3.453125 -6.75 3.421875 -6.75 3.34375 -6.625 L 0.28125 -1.953125 L 0.28125 -1.640625 Z M 2.984375 -1.953125 L 0.5625 -1.953125 L 2.984375 -5.671875 Z M 2.984375 -1.953125 "/>
</symbol>
<symbol overflow="visible" id="glyph2-2">
<path style="stroke:none;" d="M 4.578125 -3.1875 C 4.578125 -3.984375 4.53125 -4.78125 4.1875 -5.515625 C 3.734375 -6.484375 2.90625 -6.640625 2.5 -6.640625 C 1.890625 -6.640625 1.171875 -6.375 0.75 -5.453125 C 0.4375 -4.765625 0.390625 -3.984375 0.390625 -3.1875 C 0.390625 -2.4375 0.421875 -1.546875 0.84375 -0.78125 C 1.265625 0.015625 2 0.21875 2.484375 0.21875 C 3.015625 0.21875 3.78125 0.015625 4.21875 -0.9375 C 4.53125 -1.625 4.578125 -2.40625 4.578125 -3.1875 Z M 2.484375 0 C 2.09375 0 1.5 -0.25 1.328125 -1.203125 C 1.21875 -1.796875 1.21875 -2.71875 1.21875 -3.3125 C 1.21875 -3.953125 1.21875 -4.609375 1.296875 -5.140625 C 1.484375 -6.328125 2.234375 -6.421875 2.484375 -6.421875 C 2.8125 -6.421875 3.46875 -6.234375 3.65625 -5.25 C 3.765625 -4.6875 3.765625 -3.9375 3.765625 -3.3125 C 3.765625 -2.5625 3.765625 -1.890625 3.65625 -1.25 C 3.5 -0.296875 2.9375 0 2.484375 0 Z M 2.484375 0 "/>
</symbol>
<symbol overflow="visible" id="glyph2-3">
<path style="stroke:none;" d="M 2.9375 -6.375 C 2.9375 -6.625 2.9375 -6.640625 2.703125 -6.640625 C 2.078125 -6 1.203125 -6 0.890625 -6 L 0.890625 -5.6875 C 1.09375 -5.6875 1.671875 -5.6875 2.1875 -5.953125 L 2.1875 -0.78125 C 2.1875 -0.421875 2.15625 -0.3125 1.265625 -0.3125 L 0.953125 -0.3125 L 0.953125 0 C 1.296875 -0.03125 2.15625 -0.03125 2.5625 -0.03125 C 2.953125 -0.03125 3.828125 -0.03125 4.171875 0 L 4.171875 -0.3125 L 3.859375 -0.3125 C 2.953125 -0.3125 2.9375 -0.421875 2.9375 -0.78125 Z M 2.9375 -6.375 "/>
</symbol>
<symbol overflow="visible" id="glyph2-4">
<path style="stroke:none;" d="M 1.265625 -0.765625 L 2.328125 -1.796875 C 3.875 -3.171875 4.46875 -3.703125 4.46875 -4.703125 C 4.46875 -5.84375 3.578125 -6.640625 2.359375 -6.640625 C 1.234375 -6.640625 0.5 -5.71875 0.5 -4.828125 C 0.5 -4.28125 1 -4.28125 1.03125 -4.28125 C 1.203125 -4.28125 1.546875 -4.390625 1.546875 -4.8125 C 1.546875 -5.0625 1.359375 -5.328125 1.015625 -5.328125 C 0.9375 -5.328125 0.921875 -5.328125 0.890625 -5.3125 C 1.109375 -5.96875 1.65625 -6.328125 2.234375 -6.328125 C 3.140625 -6.328125 3.5625 -5.515625 3.5625 -4.703125 C 3.5625 -3.90625 3.078125 -3.125 2.515625 -2.5 L 0.609375 -0.375 C 0.5 -0.265625 0.5 -0.234375 0.5 0 L 4.203125 0 L 4.46875 -1.734375 L 4.234375 -1.734375 C 4.171875 -1.4375 4.109375 -1 4 -0.84375 C 3.9375 -0.765625 3.28125 -0.765625 3.0625 -0.765625 Z M 1.265625 -0.765625 "/>
</symbol>
<symbol overflow="visible" id="glyph1-0">
<g transform="matrix(1,0,0,1,0,-8)">
<rect x="2" y="1" width="1" height="1"/>
<rect x="1" y="3" width="1" height="1"/>
<rect x="1" y="4" width="1" height="1"/>
<rect x="1" y="5" width="1" height="1"/>
<rect x="1" y="6" width="1" height="1"/>
<rect x="1" y="7" width="1" height="1"/>
<rect x="2" y="9" width="1" height="1"/>
</g>
</symbol>
<symbol overflow="visible" id="glyph1-1">
<g transform="matrix(1,0,0,1,0,-7)">
<rect x="0" y="0" width="1" height="1"/>
<rect x="1" y="0" width="1" height="1"/>
<rect x="1" y="1" width="1" height="1"/>
<rect x="1" y="2" width="1" height="1"/>
<rect x="1" y="3" width="1" height="1"/>
<rect x="1" y="4" width="1" height="1"/>
<rect x="1" y="5" width="1" height="1"/>
<rect x="1" y="6" width="1" height="1"/>
</g>
</symbol>
<symbol overflow="visible" id="glyph1-2">
<g transform="matrix(1,0,0,1,0,-5)">
<rect x="2" y="0" width="1" height="1"/>
<rect x="0" y="2" width="1" height="1"/>
<rect x="4" y="2" width="1" height="1"/>
<rect x="0" y="3" width="1" height="1"/>
<rect x="4" y="3" width="1" height="1"/>
<rect x="1" y="4" width="1" height="1"/>
<rect x="3" y="4" width="1" height="1"/>
</g>
</symbol>
<symbol overflow="visible" id="glyph1-3">
<g transform="matrix(1,0,0,1,0,-5)">
<rect x="1" y="1" width="1" height="1"/>
<rect x="1" y="2" width="1" height="1"/>
<rect x="1" y="3" width="1" height="1"/>
<rect x="1" y="4" width="1" height="1"/>
<rect x="3" y="4" width="1" height="1"/>
</g>
</symbol>
<symbol overflow="visible" id="glyph1-4">
<g transform="matrix(1,0,0,1,0,-5)">
<rect x="1" y="1" width="1" height="1"/>
<rect x="1" y="2" width="1" height="1"/>
<rect x="1" y="3" width="1" height="1"/>
<rect x="1" y="4" width="1" height="1"/>
</g>
</symbol>
<symbol overflow="visible" id="glyph1-5">
<g transform="matrix(1,0,0,1,0,-5)">
<rect x="1" y="0" width="1" height="1"/>
<rect x="0" y="1" width="1" height="1"/>
<rect x="1" y="2" width="1" height="1"/>
<rect x="2" y="2" width="1" height="1"/>
<rect x="0" y="3" width="1" height="1"/>
<rect x="0" y="4" width="1" height="1"/>
</g>
</symbol>
<symbol overflow="visible" id="glyph1-6">
<g transform="matrix(1,0,0,1,0,-8)">
<rect x="1" y="1" width="1" height="1"/>
<rect x="2" y="3" width="1" height="1"/>
<rect x="2" y="4" width="1" height="1"/>
<rect x="2" y="5" width="1" height="1"/>
<rect x="2" y="6" width="1" height="1"/>
<rect x="2" y="7" width="1" height="1"/>
<rect x="1" y="9" width="1" height="1"/>
</g>
</symbol>
<symbol overflow="visible" id="glyph1-7">
<g transform="matrix(1,0,0,1,0,-8)">
<rect x="5" y="2" width="1" height="1"/>
<rect x="4" y="3" width="1" height="1"/>
<rect x="3" y="5" width="1" height="1"/>
<rect x="5" y="5" width="1" height="1"/>
<rect x="5" y="6" width="1" height="1"/>
<rect x="7" y="6" width="1" height="1"/>
<rect x="2" y="7" width="1" height="1"/>
<rect x="5" y="7" width="1" height="1"/>
<rect x="1" y="8" width="1" height="1"/>
<rect x="6" y="8" width="1" height="1"/>
</g>
</symbol>
<symbol overflow="visible" id="glyph1-8">
<g transform="matrix(1,0,0,1,0,-8)">
<rect x="2" y="1" width="1" height="1"/>
<rect x="1" y="2" width="1" height="1"/>
<rect x="1" y="3" width="1" height="1"/>
<rect x="1" y="4" width="1" height="1"/>
<rect x="1" y="5" width="1" height="1"/>
<rect x="1" y="6" width="1" height="1"/>
<rect x="2" y="7" width="1" height="1"/>
<rect x="5" y="7" width="1" height="1"/>
</g>
</symbol>
<symbol overflow="visible" id="glyph1-9">
<g transform="matrix(1,0,0,1,0,-5)">
<rect x="2" y="0" width="1" height="1"/>
<rect x="1" y="1" width="1" height="1"/>
<rect x="3" y="1" width="1" height="1"/>
<rect x="2" y="2" width="1" height="1"/>
<rect x="3" y="2" width="1" height="1"/>
<rect x="0" y="3" width="1" height="1"/>
<rect x="3" y="3" width="1" height="1"/>
<rect x="0" y="4" width="1" height="1"/>
<rect x="3" y="4" width="1" height="1"/>
</g>
</symbol>
<symbol overflow="visible" id="glyph1-10">
<g transform="matrix(1,0,0,1,0,-7)">
<rect x="0" y="0" width="1" height="1"/>
<rect x="1" y="0" width="1" height="1"/>
<rect x="1" y="1" width="1" height="1"/>
<rect x="1" y="2" width="1" height="1"/>
<rect x="1" y="3" width="1" height="1"/>
<rect x="1" y="4" width="1" height="1"/>
<rect x="1" y="5" width="1" height="1"/>
<rect x="1" y="6" width="1" height="1"/>
</g>
</symbol>
<symbol overflow="visible" id="glyph1-11">
<g transform="matrix(1,0,0,1,0,-7)">
<rect x="1" y="0" width="1" height="1"/>
<rect x="1" y="3" width="1" height="1"/>
<rect x="1" y="4" width="1" height="1"/>
<rect x="1" y="5" width="1" height="1"/>
<rect x="1" y="6" width="1" height="1"/>
</g>
</symbol>
<symbol overflow="visible" id="glyph1-12">
<g transform="matrix(1,0,0,1,0,-5)">
<rect x="2" y="0" width="1" height="1"/>
<rect x="3" y="1" width="1" height="1"/>
<rect x="0" y="2" width="1" height="1"/>
<rect x="1" y="2" width="1" height="1"/>
<rect x="2" y="2" width="1" height="1"/>
<rect x="3" y="2" width="1" height="1"/>
<rect x="0" y="3" width="1" height="1"/>
<rect x="1" y="4" width="1" height="1"/>
<rect x="3" y="4" width="1" height="1"/>
</g>
</symbol>
<symbol overflow="visible" id="glyph1-13">
<g transform="matrix(1,0,0,1,0,-8)">
<rect x="3" y="1" width="1" height="1"/>
<rect x="3" y="2" width="1" height="1"/>
<rect x="4" y="3" width="1" height="1"/>
<rect x="2" y="4" width="1" height="1"/>
<rect x="4" y="4" width="1" height="1"/>
<rect x="2" y="5" width="1" height="1"/>
<rect x="3" y="5" width="1" height="1"/>
<rect x="4" y="5" width="1" height="1"/>
<rect x="5" y="6" width="1" height="1"/>
<rect x="1" y="7" width="1" height="1"/>
<rect x="5" y="7" width="1" height="1"/>
</g>
</symbol>
<symbol overflow="visible" id="glyph1-14">
<g transform="matrix(1,0,0,1,0,-5)">
<rect x="1" y="1" width="1" height="1"/>
<rect x="3" y="1" width="1" height="1"/>
<rect x="2" y="2" width="1" height="1"/>
<rect x="1" y="4" width="1" height="1"/>
<rect x="3" y="4" width="1" height="1"/>
</g>
</symbol>
<symbol overflow="visible" id="glyph1-15">
<g transform="matrix(1,0,0,1,0,-7)">
<rect x="0" y="0" width="1" height="1"/>
<rect x="1" y="0" width="1" height="1"/>
<rect x="2" y="0" width="1" height="1"/>
<rect x="3" y="0" width="1" height="1"/>
<rect x="4" y="0" width="1" height="1"/>
<rect x="1" y="1" width="1" height="1"/>
<rect x="5" y="1" width="1" height="1"/>
<rect x="1" y="2" width="1" height="1"/>
<rect x="6" y="2" width="1" height="1"/>
<rect x="1" y="3" width="1" height="1"/>
<rect x="6" y="3" width="1" height="1"/>
<rect x="1" y="4" width="1" height="1"/>
<rect x="6" y="4" width="1" height="1"/>
<rect x="1" y="5" width="1" height="1"/>
<rect x="1" y="6" width="1" height="1"/>
<rect x="4" y="6" width="1" height="1"/>
<rect x="5" y="6" width="1" height="1"/>
</g>
</symbol>
<symbol overflow="visible" id="glyph1-16">
<g transform="matrix(1,0,0,1,0,-5)">
<rect x="1" y="1" width="1" height="1"/>
<rect x="1" y="2" width="1" height="1"/>
<rect x="1" y="3" width="1" height="1"/>
<rect x="1" y="4" width="1" height="1"/>
</g>
</symbol>
<symbol overflow="visible" id="glyph1-17">
<g transform="matrix(1,0,0,1,0,-7)">
<rect x="0" y="0" width="1" height="1"/>
<rect x="1" y="0" width="1" height="1"/>
<rect x="2" y="0" width="1" height="1"/>
<rect x="3" y="0" width="1" height="1"/>
<rect x="4" y="0" width="1" height="1"/>
<rect x="1" y="1" width="1" height="1"/>
<rect x="5" y="1" width="1" height="1"/>
<rect x="1" y="2" width="1" height="1"/>
<rect x="5" y="2" width="1" height="1"/>
<rect x="1" y="3" width="1" height="1"/>
<rect x="2" y="3" width="1" height="1"/>
<rect x="3" y="3" width="1" height="1"/>
<rect x="4" y="3" width="1" height="1"/>
<rect x="1" y="4" width="1" height="1"/>
<rect x="5" y="4" width="1" height="1"/>
<rect x="1" y="5" width="1" height="1"/>
<rect x="5" y="5" width="1" height="1"/>
<rect x="1" y="6" width="1" height="1"/>
<rect x="5" y="6" width="1" height="1"/>
</g>
</symbol>
<symbol overflow="visible" id="glyph1-18">
<g transform="matrix(1,0,0,1,0,-7)">
<rect x="1" y="1" width="1" height="1"/>
<rect x="1" y="2" width="1" height="1"/>
<rect x="1" y="3" width="1" height="1"/>
<rect x="1" y="4" width="1" height="1"/>
<rect x="1" y="5" width="1" height="1"/>
<rect x="1" y="6" width="1" height="1"/>
</g>
</symbol>
</g>
</defs>
<g id="surface1">
<path style="fill:none;stroke-width:0.19925;stroke-linecap:butt;stroke-linejoin:miter;stroke:rgb(89.99939%,89.99939%,89.99939%);stroke-opacity:1;stroke-miterlimit:10;" d="M -0.0004375 -0.00090625 L 276.382375 -0.00090625 M -0.0004375 21.260812 L 276.382375 21.260812 M -0.0004375 42.518625 L 276.382375 42.518625 M -0.0004375 63.780344 L 276.382375 63.780344 M -0.0004375 85.042062 L 276.382375 85.042062 M -0.0004375 106.299875 L 276.382375 106.299875 M -0.0004375 127.561594 L 276.382375 127.561594 M -0.0004375 148.819406 L 276.382375 148.819406 M -0.0004375 170.081125 L 276.382375 170.081125 M -0.0004375 191.338937 L 276.382375 191.338937 M -0.0004375 212.600656 L 276.382375 212.600656 M -0.0004375 233.862375 L 276.382375 233.862375 M -0.0004375 255.120187 L 276.382375 255.120187 M -0.0004375 276.381906 L 276.382375 276.381906 M -0.0004375 -0.00090625 L -0.0004375 276.381906 M 21.261281 -0.00090625 L 21.261281 276.381906 M 42.519094 -0.00090625 L 42.519094 276.381906 M 63.780812 -0.00090625 L 63.780812 276.381906 M 85.038625 -0.00090625 L 85.038625 276.381906 M 106.300344 -0.00090625 L 106.300344 276.381906 M 127.562063 -0.00090625 L 127.562063 276.381906 M 148.819875 -0.00090625 L 148.819875 276.381906 M 170.081594 -0.00090625 L 170.081594 276.381906 M 191.339406 -0.00090625 L 191.339406 276.381906 M 212.601125 -0.00090625 L 212.601125 276.381906 M 233.862844 -0.00090625 L 233.862844 276.381906 M 255.120656 -0.00090625 L 255.120656 276.381906 M 276.382375 -0.00090625 L 276.382375 276.381906 " transform="matrix(1,0,0,-1,28.227,316.628)"/>
<path style="fill:none;stroke-width:0.79701;stroke-linecap:butt;stroke-linejoin:miter;stroke:rgb(0%,0%,0%);stroke-opacity:1;stroke-miterlimit:10;" d="M -8.504344 -0.00090625 L 295.050344 -0.00090625 " transform="matrix(1,0,0,-1,28.227,316.628)"/>
<path style=" stroke:none;fill-rule:nonzero;fill:rgb(0%,0%,0%);fill-opacity:1;" d="M 325.867188 316.628906 L 321.722656 314.554688 L 323.277344 316.628906 L 321.722656 318.699219 "/>
<g style="fill:rgb(0%,0%,0%);fill-opacity:1;">
  <use xlink:href="#glyph0-1" x="329.582" y="319.118"/>
</g>
<g style="fill:rgb(0%,0%,0%);fill-opacity:1;">
  <use xlink:href="#glyph1-0" x="336.497041" y="319.118"/>
  <use xlink:href="#glyph1-1" x="340.370217" y="319.118"/>
  <use xlink:href="#glyph1-2" x="345.903496" y="319.118"/>
  <use xlink:href="#glyph1-3" x="350.883808" y="319.118"/>
  <use xlink:href="#glyph1-4" x="356.417088" y="319.118"/>
  <use xlink:href="#glyph1-5" x="360.317852" y="319.118"/>
  <use xlink:href="#glyph1-6" x="364.246205" y="319.118"/>
</g>
<path style="fill:none;stroke-width:0.79701;stroke-linecap:butt;stroke-linejoin:miter;stroke:rgb(0%,0%,0%);stroke-opacity:1;stroke-miterlimit:10;" d="M -0.0004375 -8.504813 L -0.0004375 295.049875 " transform="matrix(1,0,0,-1,28.227,316.628)"/>
<path style=" stroke:none;fill-rule:nonzero;fill:rgb(0%,0%,0%);fill-opacity:1;" d="M 28.226563 18.988281 L 26.15625 23.132813 L 28.226563 21.578125 L 30.300781 23.132813 "/>
<g style="fill:rgb(0%,0%,0%);fill-opacity:1;">
  <use xlink:href="#glyph0-2" x="16.037" y="12.782"/>
</g>
<g style="fill:rgb(0%,0%,0%);fill-opacity:1;">
  <use xlink:href="#glyph1-0" x="24.36673" y="12.782"/>
  <use xlink:href="#glyph1-7" x="28.239906" y="12.782"/>
  <use xlink:href="#glyph1-6" x="36.540425" y="12.782"/>
</g>
<path style="fill:none;stroke-width:0.79701;stroke-linecap:butt;stroke-linejoin:miter;stroke:rgb(0%,0%,0%);stroke-opacity:1;stroke-miterlimit:10;" d="M -0.0004375 85.042062 L -4.250438 85.042062 " transform="matrix(1,0,0,-1,28.227,316.628)"/>
<g style="fill:rgb(0%,0%,0%);fill-opacity:1;">
  <use xlink:href="#glyph2-1" x="10.294" y="234.799"/>
  <use xlink:href="#glyph2-2" x="15.2753" y="234.799"/>
</g>
<path style="fill:none;stroke-width:0.79701;stroke-linecap:butt;stroke-linejoin:miter;stroke:rgb(0%,0%,0%);stroke-opacity:1;stroke-miterlimit:10;" d="M -0.0004375 212.600656 L -4.250438 212.600656 " transform="matrix(1,0,0,-1,28.227,316.628)"/>
<g style="fill:rgb(0%,0%,0%);fill-opacity:1;">
  <use xlink:href="#glyph2-3" x="5.312" y="107.24"/>
  <use xlink:href="#glyph2-2" x="10.2933" y="107.24"/>
  <use xlink:href="#glyph2-2" x="15.2746" y="107.24"/>
</g>
<path style="fill:none;stroke-width:0.79701;stroke-linecap:butt;stroke-linejoin:miter;stroke:rgb(0%,0%,0%);stroke-opacity:1;stroke-miterlimit:10;" d="M -0.0004375 255.120187 L -4.250438 255.120187 " transform="matrix(1,0,0,-1,28.227,316.628)"/>
<g style="fill:rgb(0%,0%,0%);fill-opacity:1;">
  <use xlink:href="#glyph2-3" x="5.312" y="64.72"/>
  <use xlink:href="#glyph2-4" x="10.2933" y="64.72"/>
  <use xlink:href="#glyph2-2" x="15.2746" y="64.72"/>
</g>
<path style="fill:none;stroke-width:0.79701;stroke-linecap:butt;stroke-linejoin:miter;stroke:rgb(0%,0%,0%);stroke-opacity:1;stroke-miterlimit:10;" d="M 212.601125 -0.00090625 L 212.601125 -4.250906 " transform="matrix(1,0,0,-1,28.227,316.628)"/>
<g style="fill:rgb(0%,0%,0%);fill-opacity:1;">
  <use xlink:href="#glyph2-3" x="235.844" y="331.019"/>
  <use xlink:href="#glyph2-2" x="240.8253" y="331.019"/>
</g>
<path style="fill:none;stroke-width:0.79701;stroke-linecap:butt;stroke-linejoin:miter;stroke:rgb(0%,0%,0%);stroke-opacity:1;stroke-miterlimit:10;" d="M 255.120656 -0.00090625 L 255.120656 -4.250906 " transform="matrix(1,0,0,-1,28.227,316.628)"/>
<g style="fill:rgb(0%,0%,0%);fill-opacity:1;">
  <use xlink:href="#glyph2-3" x="278.363" y="331.019"/>
  <use xlink:href="#glyph2-4" x="283.3443" y="331.019"/>
</g>
<g style="fill:rgb(0%,0%,0%);fill-opacity:1;">
  <use xlink:href="#glyph2-2" x="17.232" y="328.342"/>
</g>
<path style="fill:none;stroke-width:0.3985;stroke-linecap:butt;stroke-linejoin:miter;stroke:rgb(50%,50%,50%);stroke-opacity:1;stroke-dasharray:2.98883,2.98883;stroke-miterlimit:10;" d="M -0.0004375 212.600656 L 255.120656 212.600656 " transform="matrix(1,0,0,-1,28.227,316.628)"/>
<path style="fill:none;stroke-width:0.3985;stroke-linecap:butt;stroke-linejoin:miter;stroke:rgb(50%,50%,50%);stroke-opacity:1;stroke-dasharray:2.98883,2.98883;stroke-miterlimit:10;" d="M 212.601125 -0.00090625 L 212.601125 212.600656 " transform="matrix(1,0,0,-1,28.227,316.628)"/>
<path style="fill:none;stroke-width:0.3985;stroke-linecap:butt;stroke-linejoin:miter;stroke:rgb(50%,50%,50%);stroke-opacity:1;stroke-dasharray:2.98883,2.98883;stroke-miterlimit:10;" d="M 255.120656 -0.00090625 L 255.120656 212.600656 " transform="matrix(1,0,0,-1,28.227,316.628)"/>
<path style="fill:none;stroke-width:1.19553;stroke-linecap:butt;stroke-linejoin:miter;stroke:rgb(100%,0%,0%);stroke-opacity:1;stroke-miterlimit:10;" d="M -0.0004375 212.600656 L 276.382375 212.600656 " transform="matrix(1,0,0,-1,28.227,316.628)"/>
<g style="fill:rgb(100%,0%,0%);fill-opacity:1;">
  <use xlink:href="#glyph1-8" x="140.001" y="100.511"/>
  <use xlink:href="#glyph1-1" x="147.194384" y="100.511"/>
  <use xlink:href="#glyph1-9" x="152.727664" y="100.511"/>
  <use xlink:href="#glyph1-4" x="157.707975" y="100.511"/>
  <use xlink:href="#glyph1-10" x="161.60874" y="100.511"/>
  <use xlink:href="#glyph1-11" x="164.375979" y="100.511"/>
  <use xlink:href="#glyph1-12" x="167.143219" y="100.511"/>
</g>
<path style="fill:none;stroke-width:1.19553;stroke-linecap:butt;stroke-linejoin:miter;stroke:rgb(0%,0%,100%);stroke-opacity:1;stroke-miterlimit:10;" d="M -0.0004375 85.042062 L 212.601125 212.600656 L 276.382375 212.600656 " transform="matrix(1,0,0,-1,28.227,316.628)"/>
<g style="fill:rgb(0%,0%,100%);fill-opacity:1;">
  <use xlink:href="#glyph1-13" x="138.045" y="178.19"/>
  <use xlink:href="#glyph1-10" x="145.515468" y="178.19"/>
  <use xlink:href="#glyph1-12" x="148.282707" y="178.19"/>
  <use xlink:href="#glyph1-14" x="152.710051" y="178.19"/>
</g>
<path style="fill:none;stroke-width:1.19553;stroke-linecap:butt;stroke-linejoin:miter;stroke:rgb(79.998779%,39.99939%,0%);stroke-opacity:1;stroke-miterlimit:10;" d="M -0.0004375 85.042062 L 276.382375 269.151437 " transform="matrix(1,0,0,-1,28.227,316.628)"/>
<g style="fill:rgb(79.998779%,39.99939%,0%);fill-opacity:1;">
  <use xlink:href="#glyph1-15" x="206.631" y="92.007"/>
  <use xlink:href="#glyph1-11" x="214.23941" y="92.007"/>
  <use xlink:href="#glyph1-9" x="217.006649" y="92.007"/>
  <use xlink:href="#glyph1-16" x="221.986961" y="92.007"/>
  <use xlink:href="#glyph1-9" x="227.520241" y="92.007"/>
</g>
<path style="fill:none;stroke-width:1.19553;stroke-linecap:butt;stroke-linejoin:miter;stroke:rgb(0%,59.999084%,0%);stroke-opacity:1;stroke-miterlimit:10;" d="M -0.0004375 85.042062 C 85.530812 156.811594 143.468313 212.600656 255.120656 212.600656 " transform="matrix(1,0,0,-1,28.227,316.628)"/>
<g style="fill:rgb(0%,59.999084%,0%);fill-opacity:1;">
  <use xlink:href="#glyph1-17" x="102.822" y="139.922"/>
  <use xlink:href="#glyph1-12" x="109.877442" y="139.922"/>
  <use xlink:href="#glyph1-18" x="114.304785" y="139.922"/>
  <use xlink:href="#glyph1-1" x="118.177961" y="139.922"/>
</g>
</g>
</svg>
